<?xml version="1.0" encoding="utf-8"?>
<svg version="1.1" id="Capa_1" xmlns="http://www.w3.org/2000/svg" xmlns:xlink="http://www.w3.org/1999/xlink" x="0px" y="0px"
	 viewBox="0 0 10.3 9.6" style="enable-background:new 0 0 10.3 9.6;" xml:space="preserve">
<style type="text/css">
	.st0{fill:url(#SVGID_1_);}
</style>
<linearGradient id="SVGID_1_" gradientUnits="userSpaceOnUse" x1="6.1562" y1="2.2745" x2="5.1042" y2="9.6107" gradientTransform="matrix(1 0 0 -1 0 12)">
	<stop  offset="5.891781e-02" style="stop-color:#FF1744"/>
	<stop  offset="0.5089" style="stop-color:#FF1744"/>
	<stop  offset="0.932" style="stop-color:#FF616F"/>
</linearGradient>
<path class="st0" d="M10.3,2.8C9.4,6.3,7.1,6.6,5.6,9.6c-0.4-0.5-3-2-3.4-2.4c-1.4-1.6-1.1-0.8-2-2.9c-0.5-1.2-0.1-4.6,1.7-4.2
	c1,0.2,1.2,0.4,2,1.1c0.4,0.4,0.8,1,1,1c0.1,0,0.2,0,0.2-0.1c0.4-0.7,0.5-0.7,1.2-1.4C6.7,0.3,6.9,0.1,7.7,0
	C9.1-0.1,10.6,1.1,10.3,2.8z"/>
</svg>
