<svg id="fa6abfe7-0729-481d-9f9b-69d0f489f5ab" data-name="Capa 1" xmlns="http://www.w3.org/2000/svg" xmlns:xlink="http://www.w3.org/1999/xlink" viewBox="0 0 176.4 123.69"><defs><style>.a8b9171a-ff69-4f0f-aae6-f7a749e0e83f{fill:none;}.a8c258b6-1e1b-496c-ae7f-983679a2d81e,.b3224f4c-f094-4fdb-b6c4-59cc3f3400c9,.b57cf393-694f-4567-9b81-bfa9af5e0587{fill:#010101;}.b3224f4c-f094-4fdb-b6c4-59cc3f3400c9,.b7defda3-91d5-4fdd-8889-fcbf3a84c44c{stroke:#fff;stroke-miterlimit:10;}.a8c258b6-1e1b-496c-ae7f-983679a2d81e,.b57cf393-694f-4567-9b81-bfa9af5e0587{isolation:isolate;font-family:ArialMT, Arial;}.a8c258b6-1e1b-496c-ae7f-983679a2d81e{font-size:23.74px;}.b57cf393-694f-4567-9b81-bfa9af5e0587{font-size:11.87px;}.bd5cc441-b436-48a9-87b8-b031e228ac8d{clip-path:url(#ad5d2c17-c2e9-422f-ae59-8e7651f1427f);}.a0bfc222-607d-4ee1-9474-05a511b074b2{fill:url(#b02f2c7d-021f-490f-a1fa-80df90eed430);}.fc8f7d5e-db69-4d5c-9d95-2a00ed11866a{clip-path:url(#ed8883b7-efa3-455a-895c-cb42439b736d);}.a40d848a-267b-4de0-9777-91be29464b0b{fill:url(#a4deac5b-6616-4f6c-8904-2e1daf6c3ede);}</style><clipPath id="ad5d2c17-c2e9-422f-ae59-8e7651f1427f" transform="translate(26.37 16.47)"><path class="a8b9171a-ff69-4f0f-aae6-f7a749e0e83f" d="M56.3,49.64a.27.27,0,0,0-.21.31.28.28,0,0,0,.21.2c9.09,1.72,11.54,5.14,11.54,5.14a6.37,6.37,0,0,1,2,2.92,1,1,0,0,1-.92,1.07,1,1,0,0,1-.6-.14,18.29,18.29,0,0,0-9.6-3.31s-2.69-.54,0,.54S63,61.74,63,61.74c1.07,2.69-.54,3.22-.54,3.22a17.74,17.74,0,0,0-9-6.71.4.4,0,0,0-.51.27.42.42,0,0,0,.08.39,20.23,20.23,0,0,1,4.58,13c-.54,10.21,7,10.75,7,10.75,4,.67,6.17-1.18,7.21-2.66a3.33,3.33,0,0,1,3-1.34c4.27.37,5.88-.84,5.88-.84,4.57-1.88,3.65-7.52,3-10.13a3.18,3.18,0,0,1,.3-2.12,9.8,9.8,0,0,0,1-3.83C84.74,51,74.87,48.65,66.52,48.65a56.55,56.55,0,0,0-10.22,1"/></clipPath><linearGradient id="b02f2c7d-021f-490f-a1fa-80df90eed430" x1="-1067.23" y1="306.37" x2="-1066.23" y2="306.37" gradientTransform="translate(103643.56 -29679.22) scale(97.09)" gradientUnits="userSpaceOnUse"><stop offset="0" stop-color="#e72b4a"/><stop offset="0.24" stop-color="#e72b4a"/><stop offset="0.46" stop-color="#ec6171"/><stop offset="1" stop-color="#6bc1b0"/></linearGradient><clipPath id="ed8883b7-efa3-455a-895c-cb42439b736d" transform="translate(26.37 16.47)"><path class="a8b9171a-ff69-4f0f-aae6-f7a749e0e83f" d="M26.08,7A2.11,2.11,0,0,1,24,8.16c-2.51-.26-4.58,1.54-5.29,2.25a2.59,2.59,0,0,0-.42.51c-3.68,6,7.22,14.86,10.52,17.36a5.12,5.12,0,0,1,1.51,1.85c3.42,7-2,2.52-3.81.93a8.18,8.18,0,0,0-1.41-1c-6.85-3.91-11.4-1.46-13.45.29a4,4,0,0,1-2.72,1c-2.84-.13-3.27,3-3.18,5.5A6,6,0,0,1,4,41.46C.34,44.86-.21,48.22.06,50.64a7.33,7.33,0,0,0,2.68,4.83l2.48,2a6.92,6.92,0,0,1,2.14,2.85,4.75,4.75,0,0,0,1,1.5A6.41,6.41,0,0,0,14,63.68a16.27,16.27,0,0,0,9.85-5.2c4.66-5.59,7.7-5.93,8.43-5.92a.47.47,0,0,1,.28.09c2.28,1.78-7.1,9.6-7.1,9.6a17.89,17.89,0,0,0-7,7.52C15.18,78.94,20,80,20,80a5.22,5.22,0,0,1,3.22,4.3c.54,4.3,6.45,5.37,6.45,5.37A9.29,9.29,0,0,0,38.29,87c2.34-1.67,5.3-1.47,7.2-1.09a5,5,0,0,0,4.62-1.46c6.84-7.3-.74-23.24-3.73-28.81a.68.68,0,0,0-.92-.28.66.66,0,0,0-.36.56l-.77,9.57a.52.52,0,0,1-1,.22l-1.56-2.6a.52.52,0,0,0-1,.22C39.5,76.24,38,68.21,37.38,64.45a.42.42,0,0,0-.8-.09c-5.1,13.24-9.1,9.74-9.1,9.74-2.8-4.21,7.8-18.57,10.62-22.25A1,1,0,0,0,38,50.44a.71.71,0,0,0-.18-.12c-5.16-2.92-13.21,1.13-15.56,2.44A.92.92,0,0,1,21,52.42a.91.91,0,0,1-.09-.72c.72-2.19,6.37-5.6,7.51-6.43a.25.25,0,0,0,0-.35h0c-1.4-1.58-5.61-2.84-7.51-3.35a.4.4,0,0,1-.28-.49.39.39,0,0,1,.2-.25c7.6-4,15,.59,17.56,2.46a.68.68,0,0,0,.94-.13.71.71,0,0,0,.13-.35c.73-9-7.14-20.83-7.14-20.83-1.61-2.68,1.07-1.61,1.07-1.61l5.35,4.46a.72.72,0,0,0,1,.17.73.73,0,0,0,.3-.68l.38-7.25a.83.83,0,0,1,.87-.79.84.84,0,0,1,.59.29c2,2.35,3.09,7.67,3.6,11.18a.53.53,0,0,0,.61.41.54.54,0,0,0,.39-.34,21.93,21.93,0,0,1,3.4-6.11c2.15-2.68,2.06-4.23,2-5.41a13.88,13.88,0,0,1,0-1.58c.44-6.25-11.4-13.16-11.4-13.16A10.34,10.34,0,0,0,35.28,0c-4.9,0-7.93,4.59-9.2,7"/></clipPath><linearGradient id="a4deac5b-6616-4f6c-8904-2e1daf6c3ede" x1="-1067.23" y1="306.33" x2="-1066.23" y2="306.33" gradientTransform="translate(103595.5 -29695.78) scale(97.09)" xlink:href="#b02f2c7d-021f-490f-a1fa-80df90eed430"/></defs><path class="b3224f4c-f094-4fdb-b6c4-59cc3f3400c9" d="M60,16.92a.07.07,0,0,1,.1,0,.06.06,0,0,1,0,.06c-1.35,1.88-8.66,12.89-10,21.22,0,0-1,7-3,9.46a1.33,1.33,0,0,1-1.87.2,1.38,1.38,0,0,1-.46-.74C44.38,45.36,44.4,41.42,48,34c0,0,7.69-14.36,12.06-17" transform="translate(26.37 16.47)"/><path class="b7defda3-91d5-4fdd-8889-fcbf3a84c44c" d="M67.85,15.41a1.35,1.35,0,1,1-1.35-1.35h0a1.34,1.34,0,0,1,1.35,1.33v0" transform="translate(26.37 16.47)"/><path class="b7defda3-91d5-4fdd-8889-fcbf3a84c44c" d="M70.8,10.3a1.35,1.35,0,1,1-1.34,1.36v0A1.35,1.35,0,0,1,70.8,10.3" transform="translate(26.37 16.47)"/><path class="b7defda3-91d5-4fdd-8889-fcbf3a84c44c" d="M70.8,4.93a1.34,1.34,0,1,1-1.34,1.34h0A1.35,1.35,0,0,1,70.8,4.93" transform="translate(26.37 16.47)"/><path class="b7defda3-91d5-4fdd-8889-fcbf3a84c44c" d="M64.09,4.93a1.61,1.61,0,1,1-1.62,1.61,1.62,1.62,0,0,1,1.62-1.61h0" transform="translate(26.37 16.47)"/><path class="b7defda3-91d5-4fdd-8889-fcbf3a84c44c" d="M61.94,11.38a1.08,1.08,0,1,1-1.08,1.08h0a1.07,1.07,0,0,1,1.07-1.07h0" transform="translate(26.37 16.47)"/><text class="a8c258b6-1e1b-496c-ae7f-983679a2d81e" transform="translate(82.39 62.93)">Hibiscus</text><text class="b57cf393-694f-4567-9b81-bfa9af5e0587" transform="translate(115.05 73.96)">make it real</text><g class="bd5cc441-b436-48a9-87b8-b031e228ac8d"><rect class="a0bfc222-607d-4ee1-9474-05a511b074b2" x="47.6" y="45.27" width="42.92" height="41.48" transform="translate(11.63 128.36) rotate(-72.41)"/></g><g class="fc8f7d5e-db69-4d5c-9d95-2a00ed11866a"><rect class="a40d848a-267b-4de0-9777-91be29464b0b" x="-23.53" y="4.42" width="103.79" height="81.92" transform="translate(2.9 75.17) rotate(-72.41)"/></g></svg>