<svg width="100" height="100" viewBox="0 0 100 100" fill="none" xmlns="http://www.w3.org/2000/svg">
<path d="M49.9593 99.837L45.0693 99.5925C44.6618 99.5925 44.2543 99.511 43.9283 99.4295L40.2608 98.859C39.4458 98.696 38.7123 98.533 37.8973 98.2885L37.0823 98.044C36.8378 97.9625 36.6748 97.7995 36.5118 97.6365C36.3488 97.392 36.3488 97.1475 36.4303 96.903L38.5493 88.8345C35.7783 88.0196 33.0073 86.8786 30.4808 85.4931L26.3244 92.665C26.1614 92.9095 25.9984 93.0725 25.7539 93.0725C25.5094 93.154 25.2649 93.0725 25.0204 92.991L22.3309 91.361C21.5974 90.872 20.8639 90.3015 20.2119 89.8125L18.4189 88.5086C18.0929 88.2641 17.8484 88.0196 17.6039 87.7751L14.8329 85.2486L12.1434 82.3146C11.8989 82.0701 11.7359 81.8256 11.4914 81.5811L10.0245 79.6251C9.53545 78.9731 9.04645 78.3211 8.55746 77.6691L6.84596 74.8981C6.68296 74.6536 6.68297 74.4091 6.76447 74.1646C6.84597 73.9201 7.00897 73.7571 7.17197 73.5941L14.3439 69.4376C12.9584 66.8297 11.8174 64.1402 11.0024 61.3692L2.93398 63.4882C2.68948 63.5697 2.44499 63.4882 2.20049 63.4067C1.95599 63.2437 1.87449 63.0807 1.79299 62.8362L1.54849 61.9397C1.38549 61.2062 1.14099 60.3912 0.977993 59.6577L0.407498 55.9902C0.325998 55.5827 0.244501 55.1752 0.244501 54.7677L0 49.9592L0.244501 45.0693C0.244501 44.6618 0.325998 44.2543 0.407498 43.8468L0.977993 40.2608C1.14099 39.4458 1.30399 38.7123 1.54849 37.9788L1.79299 37.0823C1.87449 36.8378 2.03749 36.6748 2.20049 36.5118C2.44499 36.3488 2.68948 36.3488 2.93398 36.4303L11.0024 38.5493C11.8174 35.7783 12.9584 33.0073 14.3439 30.4808L7.17197 26.3244C6.92747 26.1614 6.76447 25.9984 6.76447 25.7539C6.68297 25.5094 6.76446 25.2649 6.84596 25.0204L8.47595 22.3309C8.96495 21.5974 9.45395 20.9454 9.94295 20.2934L11.4099 18.3374C11.6544 18.0114 11.8989 17.7669 12.0619 17.5224L14.6699 14.6699L17.5224 12.0619C17.7669 11.8174 18.0114 11.5729 18.2559 11.4099L20.1304 10.0245C20.7824 9.53545 21.5159 8.96495 22.1679 8.55746L24.9389 6.84596C25.1834 6.68297 25.4279 6.68297 25.6724 6.76447C25.9169 6.84597 26.0799 7.00897 26.2429 7.17196L30.3993 14.3439C33.0073 12.9584 35.6968 11.8174 38.4678 11.0024L36.3488 2.93399C36.2673 2.68949 36.3488 2.44499 36.4303 2.20049C36.5933 1.95599 36.7563 1.87449 37.0008 1.79299L37.8973 1.54849C38.6308 1.38549 39.4458 1.14099 40.1793 0.977996L43.3578 0.488998C43.6023 0.488998 43.7653 0.407498 44.0098 0.407498C44.3358 0.325998 44.6618 0.325999 45.0693 0.244499L49.8777 0L54.7677 0.244499C55.1752 0.244499 55.5012 0.325998 55.8272 0.407498C55.9902 0.407498 56.2347 0.488998 56.3977 0.488998L59.5762 0.977996C60.3912 1.14099 61.1247 1.30399 61.8582 1.54849C62.1842 1.62999 62.4287 1.71149 62.7547 1.79299C62.9992 1.87449 63.1622 2.03749 63.3252 2.20049C63.4882 2.44499 63.4882 2.68949 63.4067 2.93399L61.2877 11.0024C64.1402 11.8174 66.8297 12.9584 69.3561 14.3439L73.5126 7.17196C73.6756 6.92747 73.8386 6.76447 74.0831 6.76447C74.3276 6.76447 74.5721 6.76447 74.8166 6.84596L77.5061 8.47596C78.1581 8.96495 78.7286 9.37245 79.3806 9.86145L81.4181 11.4099C81.7441 11.6544 81.9886 11.8989 82.2331 12.1434L85.0041 14.6699L87.4491 17.2779C87.7751 17.6039 88.0196 17.9299 88.3456 18.2559L89.3235 19.5599C89.568 19.8859 89.7311 20.1304 89.9756 20.4564C90.383 21.0269 90.872 21.5974 91.2795 22.1679L92.991 24.9389C93.154 25.1834 93.154 25.4279 93.0725 25.6724C92.991 25.9169 92.828 26.0799 92.665 26.2429L85.4931 30.3993C86.8786 32.9258 88.0195 35.6968 88.8345 38.4678L96.903 36.3488C97.1475 36.2673 97.392 36.3488 97.6365 36.4303C97.881 36.5933 97.9625 36.7563 98.044 37.0008C98.1255 37.3268 98.207 37.6528 98.2885 37.9788C98.4515 38.7123 98.696 39.4458 98.859 40.1793L99.348 43.3578C99.348 43.6023 99.4295 43.7653 99.4295 44.0098C99.511 44.3358 99.511 44.6618 99.5925 45.0693L99.837 49.8777L99.5925 54.7677C99.5925 55.1752 99.511 55.5012 99.4295 55.8272C99.4295 55.9902 99.348 56.2347 99.348 56.3977L98.859 59.5762C98.696 60.3912 98.533 61.1247 98.2885 61.8582C98.207 62.1842 98.1255 62.5102 98.044 62.8362C97.9625 63.0807 97.7995 63.2437 97.6365 63.4067C97.392 63.5697 97.1475 63.5697 96.903 63.4882L88.0195 61.1247C87.5305 60.9617 87.2046 60.4727 87.3676 59.9837C87.5306 59.4947 88.0195 59.1687 88.5085 59.3317L96.4955 61.4507C96.4955 61.4507 96.4955 61.4507 96.4955 61.3692C96.6585 60.7172 96.903 59.9837 96.9845 59.2502L97.4735 56.1532C97.4735 55.9902 97.555 55.7457 97.555 55.5012C97.6365 55.1752 97.6365 54.9307 97.6365 54.6047L97.881 49.8777L97.6365 45.2323C97.6365 44.9878 97.555 44.6618 97.555 44.3358C97.555 44.0913 97.4735 43.9283 97.4735 43.6838L96.9845 40.5868C96.8215 39.9348 96.6585 39.2828 96.4955 38.5493V38.4678L88.5085 40.5868C88.264 40.6683 88.0196 40.5868 87.7751 40.5053C87.5306 40.3423 87.4491 40.1793 87.3676 39.9348C86.4711 36.6748 85.1671 33.4963 83.5371 30.6438C83.3741 30.3993 83.3741 30.1548 83.4556 29.9103C83.5371 29.6658 83.7001 29.5029 83.8631 29.3399L91.035 25.1834L89.8941 23.2274C89.568 22.7384 89.0791 22.1679 88.6716 21.5974C88.4271 21.2714 88.264 21.0269 88.0195 20.7009L87.0416 19.4784C86.7971 19.2339 86.5526 18.9079 86.2266 18.5819L83.8631 15.9739L81.1736 13.5289C80.9291 13.2844 80.6846 13.0399 80.4401 12.8769L78.4026 11.3284C77.8321 10.9209 77.2616 10.4319 76.6096 10.0245L74.7351 8.88346L70.5786 16.0554C70.4156 16.2999 70.2527 16.3814 70.0082 16.4629C69.7637 16.5444 69.5191 16.4629 69.2746 16.3814C66.3407 14.6699 63.2437 13.3659 59.9837 12.5509C59.7392 12.4694 59.5762 12.3064 59.4132 12.1434C59.2502 11.8989 59.2502 11.6544 59.3317 11.4099L61.4507 3.42298C60.7172 3.25998 60.0652 3.01549 59.3317 2.93399L56.2347 2.44499C56.0717 2.44499 55.8272 2.36349 55.5827 2.36349C55.2567 2.28199 55.0122 2.28199 54.6862 2.28199L49.8777 2.11899L45.2323 2.36349C44.9878 2.36349 44.6618 2.44499 44.3358 2.44499C44.0913 2.44499 43.9283 2.52649 43.6838 2.52649L40.5868 3.01549C39.9348 3.17848 39.2013 3.34148 38.4678 3.50448L40.5868 11.4914C40.6683 11.7359 40.5868 11.9804 40.5053 12.2249C40.3423 12.4694 40.1793 12.5509 39.9348 12.6324C36.6748 13.5289 33.5778 14.8329 30.6438 16.4629C30.3993 16.6259 30.1548 16.6259 29.9103 16.5444C29.6658 16.4629 29.5029 16.2999 29.3399 16.1369L25.1834 8.96495L23.2274 10.1059C22.5754 10.5134 21.9234 11.0024 21.2714 11.5729L19.4784 12.9584C19.3154 13.1214 19.0709 13.3659 18.8264 13.5289L16.0554 16.0554L13.5289 18.8264C13.2844 19.0709 13.1214 19.3154 12.8769 19.5599L11.4914 21.4344C11.0024 22.0864 10.5134 22.6569 10.1059 23.3089L8.96495 25.1834L16.1369 29.3399C16.3814 29.5029 16.4629 29.6658 16.5444 29.9103C16.6259 30.1548 16.5444 30.3993 16.4629 30.6438C14.7514 33.5778 13.4474 36.6748 12.6324 39.9348C12.5509 40.1793 12.3879 40.3423 12.2249 40.5053C11.9804 40.5868 11.7359 40.6683 11.4914 40.5868L3.50448 38.4678C3.34149 39.2013 3.09698 39.9348 3.01548 40.5868L2.44499 44.1728C2.36349 44.4988 2.36349 44.8248 2.28199 45.2323L2.03749 49.9592L2.28199 54.6047C2.28199 54.9307 2.36349 55.2567 2.44499 55.6642L3.01548 59.2502C3.17848 59.9022 3.34149 60.6357 3.50448 61.3692L11.4914 59.2502C11.7359 59.1687 11.9804 59.2502 12.2249 59.3317C12.4694 59.4947 12.5509 59.6577 12.6324 59.9022C13.5289 63.1622 14.8329 66.2592 16.4629 69.1932C16.6259 69.4377 16.6259 69.6821 16.5444 69.9266C16.4629 70.1711 16.2999 70.3341 16.1369 70.4971L8.96495 74.6536L10.1059 76.6096C10.5134 77.1801 11.0024 77.8321 11.4914 78.4841L12.9584 80.4401C13.1214 80.6031 13.3659 80.8476 13.5289 81.0921L16.1369 83.9446L18.9079 86.4711C19.1524 86.7156 19.3969 86.8786 19.6414 87.1231L21.3529 88.4271C22.0049 88.9161 22.7384 89.405 23.3904 89.894L25.2649 91.035L29.4213 83.8631C29.5843 83.6186 29.7474 83.5371 29.9919 83.4556C30.2363 83.3741 30.4808 83.4556 30.7253 83.5371C33.6593 85.2486 36.7563 86.5526 40.0163 87.3676C40.2608 87.4491 40.4238 87.6121 40.5868 87.7751C40.7498 88.0196 40.7498 88.2641 40.6683 88.5086L38.5493 96.4955C39.2828 96.6585 40.0163 96.903 40.6683 96.9845L44.3358 97.555C44.6618 97.6365 44.9878 97.6365 45.3138 97.718L50.0408 97.9625L54.7677 97.718C55.0937 97.718 55.4197 97.6365 55.7457 97.555C55.9087 97.555 56.0717 97.4735 56.3162 97.4735L59.4947 96.9845C60.1467 96.8215 60.8802 96.6585 61.6137 96.4955L59.4947 88.5086C59.4132 88.2641 59.4947 88.0196 59.5762 87.7751C59.7392 87.5306 59.9022 87.4491 60.1467 87.3676C63.4067 86.4711 66.5852 85.1671 69.4376 83.5371C69.6821 83.3741 69.9266 83.3741 70.1711 83.4556C70.4156 83.5371 70.5786 83.7001 70.7416 83.8631L74.8981 91.035L76.8541 89.894C77.4246 89.4865 77.9951 89.079 78.6471 88.59L80.6031 87.1231C80.8476 86.9601 81.0921 86.7156 81.3366 86.4711L84.1076 83.9446L86.3895 81.4181C86.634 81.0921 86.96 80.7661 87.2045 80.5216L88.1825 79.2991C88.427 79.0546 88.59 78.7286 88.8345 78.4026C89.242 77.8321 89.6495 77.2616 90.057 76.6911L91.198 74.8166L84.0261 70.6601C83.6186 70.4156 83.4556 69.8451 83.7001 69.4376C83.9446 69.0302 84.5151 68.8671 84.9226 69.1116L92.9095 73.7571C93.154 73.9201 93.317 74.0831 93.317 74.3276C93.3985 74.5721 93.317 74.8166 93.2355 75.0611L91.6055 77.7506C91.198 78.4026 90.709 78.9731 90.3015 79.5436C90.057 79.8696 89.894 80.1141 89.6495 80.4401L88.6716 81.7441C88.3456 82.1516 88.1011 82.4776 87.7751 82.8036L85.4116 85.4116L82.5591 88.0196C82.3146 88.2641 81.9886 88.5086 81.7441 88.7531L79.7066 90.3015C79.0546 90.7905 78.4841 91.198 77.8321 91.687L75.0611 93.3985C74.8166 93.5615 74.5721 93.5615 74.3276 93.48C74.0831 93.3985 73.9201 93.2355 73.7571 93.0725L69.6007 85.9006C67.0742 87.2861 64.3032 88.4271 61.5322 89.2421L63.6512 97.3105C63.7327 97.555 63.6512 97.7995 63.5697 98.044C63.4067 98.2885 63.2437 98.37 62.9992 98.4515C62.6732 98.533 62.4287 98.6145 62.1027 98.696C61.3692 98.859 60.6357 99.1035 59.8207 99.2665L56.0717 99.837C55.6642 99.9185 55.3382 99.9185 54.9307 100L49.9593 99.837Z" fill="url(#paint0_linear_146_1658)"/>
<path d="M49.9593 64.2217C42.1353 64.2217 35.7783 57.8647 35.7783 50.0408C35.7783 42.2168 42.1353 35.8598 49.9593 35.8598C57.7832 35.8598 64.1402 42.2168 64.1402 50.0408C64.0587 57.8647 57.7017 64.2217 49.9593 64.2217ZM49.9593 37.7343C43.1948 37.7343 37.6528 43.2763 37.6528 50.0408C37.6528 56.8052 43.1948 62.3472 49.9593 62.3472C56.7237 62.3472 62.2657 56.8052 62.2657 50.0408C62.2657 43.2763 56.7237 37.7343 49.9593 37.7343Z" fill="url(#paint1_linear_146_1658)"/>
<path d="M49.9592 37.7343C49.4702 37.7343 49.0627 37.3268 49.0627 36.8378V19.5599C49.0627 19.0709 49.4702 18.6634 49.9592 18.6634C50.4482 18.6634 50.8557 19.0709 50.8557 19.5599V36.8378C50.8557 37.3268 50.4482 37.7343 49.9592 37.7343Z" fill="url(#paint2_linear_146_1658)"/>
<path d="M49.9593 76.1206C35.6153 76.1206 23.9609 64.4662 23.9609 50.1223C23.9609 35.7783 35.6153 24.1239 49.9593 24.1239C50.4483 24.1239 50.8558 24.5314 50.8558 25.0204C50.8558 25.5094 50.4483 25.9169 49.9593 25.9169C36.5933 25.9169 25.7539 36.7563 25.7539 50.1223C25.7539 63.4882 36.5933 74.3277 49.9593 74.3277C50.4483 74.3277 50.8558 74.7351 50.8558 75.2241C50.8558 75.6316 50.4483 76.1206 49.9593 76.1206Z" fill="url(#paint3_linear_146_1658)"/>
<path d="M92.176 75.3871C92.013 75.3871 91.85 75.3871 91.687 75.2241L60.8802 57.4572C60.4727 57.2127 60.3097 56.6422 60.5542 56.2347C60.7987 55.8272 61.3692 55.6642 61.7767 55.9087L92.5835 73.6756C92.991 73.9201 93.154 74.4906 92.9095 74.8981C92.828 75.2241 92.502 75.3871 92.176 75.3871Z" fill="url(#paint4_linear_146_1658)"/>
<path d="M71.5566 63.4882C71.3936 63.4882 71.2306 63.4882 71.0676 63.3252C70.6601 63.0807 70.4971 62.5102 70.7416 62.1027C72.8606 58.4352 74.0016 54.2787 74.0016 50.0408C74.0016 43.5208 71.4751 37.4083 66.8296 32.8443C66.5036 32.5183 66.4221 31.8663 66.8296 31.5403C67.1556 31.2143 67.8076 31.1328 68.1336 31.5403C73.1051 36.4303 75.8761 43.0318 75.8761 50.0408C75.8761 54.6047 74.6536 59.0872 72.3716 63.0807C72.2086 63.3252 71.8826 63.4882 71.5566 63.4882Z" fill="url(#paint5_linear_146_1658)"/>
<path d="M54.2787 17.1149C54.2787 19.5599 52.3227 21.5159 49.8777 21.5159C47.4328 21.5159 45.4768 19.5599 45.4768 17.1149C45.4768 14.67 47.4328 12.714 49.8777 12.714C52.3227 12.7955 54.2787 14.7514 54.2787 17.1149Z" fill="url(#paint6_linear_146_1658)"/>
<path d="M71.8826 31.7848C71.8826 34.2298 69.9266 36.1858 67.4817 36.1858C65.0367 36.1858 63.0807 34.2298 63.0807 31.7848C63.0807 29.3398 65.0367 27.3839 67.4817 27.3839C69.9266 27.3839 71.8826 29.4213 71.8826 31.7848Z" fill="url(#paint7_linear_146_1658)"/>
<path d="M54.2787 75.3871C54.2787 77.8321 52.3227 79.7881 49.8777 79.7881C47.4328 79.7881 45.4768 77.8321 45.4768 75.3871C45.4768 72.9421 47.4328 70.9861 49.8777 70.9861C52.3227 70.9861 54.2787 72.9421 54.2787 75.3871Z" fill="url(#paint8_linear_146_1658)"/>
<defs>
<linearGradient id="paint0_linear_146_1658" x1="80.6817" y1="110.839" x2="80.1281" y2="-8.16869" gradientUnits="userSpaceOnUse">
<stop offset="0.0589178" stop-color="#FF1744"/>
<stop offset="0.2402" stop-color="#FF1744"/>
<stop offset="0.4581" stop-color="#FF616F"/>
<stop offset="0.7725" stop-color="#5CC6AC"/>
<stop offset="0.9466" stop-color="#00FFCF"/>
</linearGradient>
<linearGradient id="paint1_linear_146_1658" x1="58.6985" y1="67.296" x2="58.5418" y2="33.543" gradientUnits="userSpaceOnUse">
<stop offset="0.0589178" stop-color="#FF1744"/>
<stop offset="0.2402" stop-color="#FF1744"/>
<stop offset="0.4581" stop-color="#FF616F"/>
<stop offset="0.7725" stop-color="#5CC6AC"/>
<stop offset="0.9466" stop-color="#00FFCF"/>
</linearGradient>
<linearGradient id="paint2_linear_146_1658" x1="50.5117" y1="39.8015" x2="49.3934" y2="17.1603" gradientUnits="userSpaceOnUse">
<stop offset="0.0589178" stop-color="#FF1744"/>
<stop offset="0.2402" stop-color="#FF1744"/>
<stop offset="0.4581" stop-color="#FF616F"/>
<stop offset="0.7725" stop-color="#5CC6AC"/>
<stop offset="0.9466" stop-color="#00FFCF"/>
</linearGradient>
<linearGradient id="paint3_linear_146_1658" x1="45.6955" y1="81.7568" x2="45.14" y2="19.8801" gradientUnits="userSpaceOnUse">
<stop offset="0.0589178" stop-color="#FF1744"/>
<stop offset="0.2402" stop-color="#FF1744"/>
<stop offset="0.4581" stop-color="#FF616F"/>
<stop offset="0.7725" stop-color="#5CC6AC"/>
<stop offset="0.9466" stop-color="#00FFCF"/>
</linearGradient>
<linearGradient id="paint4_linear_146_1658" x1="86.7724" y1="77.5109" x2="86.7073" y2="54.193" gradientUnits="userSpaceOnUse">
<stop offset="0.0589178" stop-color="#FF1744"/>
<stop offset="0.2402" stop-color="#FF1744"/>
<stop offset="0.4581" stop-color="#FF616F"/>
<stop offset="0.7725" stop-color="#5CC6AC"/>
<stop offset="0.9466" stop-color="#00FFCF"/>
</linearGradient>
<linearGradient id="paint5_linear_146_1658" x1="74.0875" y1="66.9811" x2="73.472" y2="28.6412" gradientUnits="userSpaceOnUse">
<stop offset="0.0589178" stop-color="#FF1744"/>
<stop offset="0.2402" stop-color="#FF1744"/>
<stop offset="0.4581" stop-color="#FF616F"/>
<stop offset="0.7725" stop-color="#5CC6AC"/>
<stop offset="0.9466" stop-color="#00FFCF"/>
</linearGradient>
<linearGradient id="paint6_linear_146_1658" x1="52.5899" y1="22.47" x2="52.5413" y2="11.995" gradientUnits="userSpaceOnUse">
<stop offset="0.0589178" stop-color="#FF1744"/>
<stop offset="0.2402" stop-color="#FF1744"/>
<stop offset="0.4581" stop-color="#FF616F"/>
<stop offset="0.7725" stop-color="#5CC6AC"/>
<stop offset="0.9466" stop-color="#00FFCF"/>
</linearGradient>
<linearGradient id="paint7_linear_146_1658" x1="70.1938" y1="37.1399" x2="70.1452" y2="26.6648" gradientUnits="userSpaceOnUse">
<stop offset="0.0589178" stop-color="#FF1744"/>
<stop offset="0.2402" stop-color="#FF1744"/>
<stop offset="0.4581" stop-color="#FF616F"/>
<stop offset="0.7725" stop-color="#5CC6AC"/>
<stop offset="0.9466" stop-color="#00FFCF"/>
</linearGradient>
<linearGradient id="paint8_linear_146_1658" x1="52.5899" y1="80.7422" x2="52.5413" y2="70.2671" gradientUnits="userSpaceOnUse">
<stop offset="0.0589178" stop-color="#FF1744"/>
<stop offset="0.2402" stop-color="#FF1744"/>
<stop offset="0.4581" stop-color="#FF616F"/>
<stop offset="0.7725" stop-color="#5CC6AC"/>
<stop offset="0.9466" stop-color="#00FFCF"/>
</linearGradient>
</defs>
</svg>
