<?xml version="1.0" encoding="utf-8"?>
<svg version="1.1" id="a3105d91-f7c2-4f08-9b98-2f044aa0bb53"
	 xmlns="http://www.w3.org/2000/svg" xmlns:xlink="http://www.w3.org/1999/xlink" x="0px" y="0px" viewBox="0 0 146 89.9"
	 style="enable-background:new 0 0 146 89.9;" xml:space="preserve">
<style type="text/css">
	.st0{fill:url(#SVGID_1_);}
	.st1{fill:url(#SVGID_00000120526530645885369170000010710102614847692975_);}
	.st2{fill:#FFFFFF;}
	.st3{font-family:'ArialMT';}
	.st4{font-size:23.74px;}
	.st5{font-size:11.1001px;}
</style>
<linearGradient id="SVGID_1_" gradientUnits="userSpaceOnUse" x1="60.2536" y1="88.9698" x2="82.1048" y2="28.9342">
	<stop  offset="0" style="stop-color:#E72B4A"/>
	<stop  offset="0.24" style="stop-color:#E72B4A"/>
	<stop  offset="0.46" style="stop-color:#EC6171"/>
	<stop  offset="1" style="stop-color:#6BC1B0"/>
</linearGradient>
<path class="st0" d="M56.3,49.6c-0.1,0-0.2,0.2-0.2,0.3s0.1,0.2,0.2,0.2c9.1,1.7,11.5,5.1,11.5,5.1c0.9,0.8,1.6,1.8,2,2.9
	c0,0.6-0.4,1-0.9,1.1l0,0c-0.2,0-0.4,0-0.6-0.1c-2.8-2-6.2-3.1-9.6-3.3c0,0-2.7-0.5,0,0.5s4.3,5.4,4.3,5.4c1.1,2.7-0.5,3.2-0.5,3.2
	c-2.2-3.2-5.4-5.5-9-6.7c-0.2-0.1-0.4,0.1-0.5,0.3l0,0c0,0.1,0,0.3,0.1,0.4c3,3.7,4.6,8.3,4.6,13c-0.5,10.2,7,10.8,7,10.8
	c4,0.7,6.2-1.2,7.2-2.7c0.7-0.9,1.8-1.5,3-1.3c4.3,0.4,5.9-0.8,5.9-0.8c4.6-1.9,3.7-7.5,3-10.1c-0.1-0.7,0-1.5,0.3-2.1
	c0.6-1.2,0.9-2.5,1-3.8C84.7,51,74.8,48.7,66.5,48.7C63.1,48.7,59.6,49,56.3,49.6"/>
<linearGradient id="SVGID_00000022557132216831657470000014652712829060115902_" gradientUnits="userSpaceOnUse" x1="17.0009" y1="89.1204" x2="46.7155" y2="7.4802">
	<stop  offset="0" style="stop-color:#E72B4A"/>
	<stop  offset="0.24" style="stop-color:#E72B4A"/>
	<stop  offset="0.46" style="stop-color:#EC6171"/>
	<stop  offset="0.6561" style="stop-color:#BD8488"/>
	<stop  offset="1" style="stop-color:#6BC1B0"/>
</linearGradient>
<path style="fill:url(#SVGID_00000022557132216831657470000014652712829060115902_);" d="M26.1,7c-0.4,0.8-1.2,1.2-2.1,1.1
	c-2.5-0.3-4.6,1.5-5.3,2.2c-0.2,0.2-0.3,0.3-0.4,0.5c-3.7,6,7.2,14.9,10.5,17.4c0.6,0.5,1.1,1.1,1.5,1.9c3.4,7-2,2.5-3.8,0.9
	c-0.4-0.4-0.9-0.7-1.4-1c-6.9-3.9-11.4-1.5-13.5,0.3c-0.7,0.7-1.7,1-2.7,1c-2.9-0.1-3.3,3-3.2,5.5c0.1,1.7-0.6,3.4-1.8,4.6
	c-3.5,3.4-4.1,6.7-3.8,9.1c0.2,1.9,1.2,3.6,2.7,4.8l2.5,2C6.2,58,7,59,7.4,60.1c0.2,0.6,0.6,1.1,1,1.5c1.5,1.5,3.6,2.2,5.6,1.9
	c3.8-0.5,7.3-2.4,9.8-5.2c4.7-5.6,7.7-5.9,8.4-5.9c0.1,0,0.2,0,0.3,0.1c2.3,1.8-7.1,9.6-7.1,9.6c-3,1.8-5.5,4.4-7,7.5
	C15.2,78.9,20,80,20,80c1.8,0.7,3,2.4,3.2,4.3c0.5,4.3,6.5,5.4,6.5,5.4c3.1,0.6,6.3-0.4,8.5-2.7c2.3-1.7,5.3-1.5,7.2-1.1
	c1.7,0.4,3.4-0.2,4.6-1.5c6.8-7.3-0.7-23.2-3.7-28.8c-0.2-0.3-0.6-0.5-0.9-0.3l0,0c-0.2,0.1-0.3,0.3-0.4,0.6l-0.7,9.6
	c0,0.3-0.2,0.5-0.5,0.6c-0.2,0-0.4-0.1-0.5-0.3c-0.5-0.8-1.1-1.8-1.6-2.6c-0.1-0.3-0.4-0.4-0.7-0.3c-0.2,0.1-0.3,0.3-0.3,0.5
	c-1.3,12.9-2.8,4.9-3.4,1.1c0-0.2-0.3-0.4-0.5-0.3l0,0c-0.1,0-0.3,0.1-0.3,0.2c-5.1,13.2-9.1,9.7-9.1,9.7
	c-2.7-4.2,7.9-18.6,10.7-22.2c0.4-0.4,0.3-1-0.1-1.4c0,0,0,0-0.1,0s-0.1-0.1-0.2-0.1c-5.2-2.9-13.2,1.1-15.5,2.4
	c-0.4,0.3-1,0.1-1.3-0.3c-0.1-0.2-0.2-0.5-0.1-0.7c0.7-2.2,6.4-5.6,7.5-6.4c0.1-0.1,0.1-0.3,0-0.4l0,0c-1.4-1.6-5.6-2.8-7.5-3.3
	c-0.2-0.1-0.3-0.3-0.3-0.5c0-0.1,0.1-0.2,0.2-0.2c7.6-4,15,0.6,17.6,2.5c0.3,0.2,0.7,0.2,0.9-0.1l0,0c0.1-0.1,0.2-0.2,0.2-0.4
	c0.7-9-7.1-20.8-7.1-20.8c-1.6-2.7,1.1-1.6,1.1-1.6l5.4,4.5c0.3,0.2,0.8,0.2,1-0.1c0.1-0.1,0.1-0.3,0.2-0.4l0.4-7.2
	c0-0.5,0.4-0.8,0.9-0.8l0,0c0.2,0,0.4,0.1,0.6,0.3c2,2.4,3.1,7.7,3.6,11.2c0.1,0.3,0.3,0.5,0.6,0.4l0,0c0.2,0,0.3-0.2,0.4-0.3
	c0.8-2.2,1.9-4.3,3.4-6.1c2.2-2.7,2-4.2,2-5.4c0-0.5,0-1.1,0-1.6C52.2,8.5,40.4,1.5,40.4,1.5C38.8,0.5,37,0,35.2,0
	C30.3,0,27.3,4.6,26.1,7"/>
<path class="st2" d="M60,16.8c0.1,0,0.2,0,0.1,0.1c-1.3,1.9-8.7,12.9-10,21.2c0,0-1,7-3,9.5c-0.5,0.6-1.3,0.7-1.9,0.2c0,0,0,0,0,0
	c-0.2-0.2-0.4-0.5-0.5-0.8c-0.4-1.8-0.4-5.7,3.2-13.2C48,33.8,55.7,19.4,60,16.8"/>
<path class="st2" d="M67.8,15.2c0,0.7-0.6,1.3-1.4,1.3c-0.7,0-1.3-0.6-1.3-1.3c0-0.7,0.6-1.4,1.3-1.4c0,0,0,0,0,0l0,0
	C67.2,13.9,67.8,14.5,67.8,15.2"/>
<path class="st2" d="M70.8,10.2c0.7,0,1.3,0.6,1.3,1.3s-0.6,1.3-1.3,1.3c-0.7,0-1.3-0.6-1.3-1.3C69.5,10.7,70.1,10.1,70.8,10.2
	C70.8,10.1,70.8,10.1,70.8,10.2L70.8,10.2"/>
<path class="st2" d="M70.8,4.8c0.7,0,1.3,0.6,1.3,1.3c0,0.7-0.6,1.4-1.3,1.4c-0.7,0-1.3-0.6-1.3-1.3c0,0,0,0,0,0l0,0
	C69.5,5.4,70,4.8,70.8,4.8C70.8,4.8,70.8,4.8,70.8,4.8"/>
<path class="st2" d="M64.1,4.8c0.9,0,1.6,0.7,1.6,1.6C65.7,7.3,65,8,64.1,8c-0.9,0-1.6-0.7-1.6-1.6l0,0C62.5,5.5,63.2,4.8,64.1,4.8"
	/>
<path class="st2" d="M61.9,11.2c0.6,0,1.1,0.5,1.1,1.1c0,0.6-0.5,1.1-1.1,1.1c-0.6,0-1.1-0.5-1.1-1.1c0,0,0,0,0,0l0,0
	C60.8,11.7,61.3,11.2,61.9,11.2C61.9,11.2,61.9,11.2,61.9,11.2"/>
<text transform="matrix(1 0 0 1 56.0398 46.3099)" class="st2 st3 st4">Hibiscus</text>
<text transform="matrix(1 0 0 1 88.4207 57.4964)" class="st2 st3 st5">make it real</text>
</svg>
