<svg width="73" height="100" viewBox="0 0 73 100" fill="none" xmlns="http://www.w3.org/2000/svg">
<path d="M28.3237 86.4884C27.8902 86.4884 27.5289 86.1272 27.5289 85.6936V54.6243L17.7024 45.0145C17.5578 44.8699 17.4856 44.6532 17.4856 44.4364V31.8642C17.4856 31.4306 17.8469 31.0694 18.2804 31.0694C18.7139 31.0694 19.0752 31.4306 19.0752 31.8642V44.0751L28.9018 53.685C29.0463 53.8295 29.1185 54.0462 29.1185 54.263V85.6214C29.1185 86.0549 28.7573 86.4884 28.3237 86.4884Z" fill="url(#paint0_linear_146_1640)"/>
<path d="M36.0549 86.4884C35.6214 86.4884 35.2601 86.1272 35.2601 85.6936V38.4393C35.2601 38.0058 35.6214 37.6445 36.0549 37.6445C36.4885 37.6445 36.8497 38.0058 36.8497 38.4393V85.6214C36.8497 86.0549 36.4885 86.4884 36.0549 86.4884Z" fill="url(#paint1_linear_146_1640)"/>
<path d="M44.2919 86.4884C43.8584 86.4884 43.4971 86.1272 43.4971 85.6936V45.8093C43.4971 45.5925 43.5694 45.3757 43.7139 45.2312L53.3237 35.6214V20.5925C53.3237 20.159 53.685 19.7977 54.1185 19.7977C54.552 19.7977 54.9133 20.159 54.9133 20.5925V35.9104C54.9133 36.1272 54.8411 36.3439 54.6966 36.4884L45.0867 46.1705V85.6214C45.0867 86.0549 44.7255 86.4884 44.2919 86.4884Z" fill="url(#paint2_linear_146_1640)"/>
<path d="M54.1185 24.711C56.3931 24.711 58.237 22.8671 58.237 20.5925C58.237 18.3179 56.3931 16.474 54.1185 16.474C51.8439 16.474 50 18.3179 50 20.5925C50 22.8671 51.8439 24.711 54.1185 24.711Z" fill="url(#paint3_linear_146_1640)"/>
<path d="M36.0549 45.9538C38.3295 45.9538 40.1734 44.1098 40.1734 41.8353C40.1734 39.5607 38.3295 37.7168 36.0549 37.7168C33.7803 37.7168 31.9364 39.5607 31.9364 41.8353C31.9364 44.1098 33.7803 45.9538 36.0549 45.9538Z" fill="url(#paint4_linear_146_1640)"/>
<path d="M18.2804 35.9827C20.5549 35.9827 22.3989 34.1387 22.3989 31.8642C22.3989 29.5896 20.5549 27.7457 18.2804 27.7457C16.0058 27.7457 14.1619 29.5896 14.1619 31.8642C14.1619 34.1387 16.0058 35.9827 18.2804 35.9827Z" fill="url(#paint5_linear_146_1640)"/>
<path d="M36.0549 100C24.711 100 22.5433 90.5347 22.5433 90.4624C22.4711 90.2457 22.5433 89.9567 22.6878 89.8122C22.8323 89.5954 23.0491 89.5231 23.3381 89.5231H48.7717C48.9884 89.5231 49.2774 89.6676 49.4219 89.8122C49.5665 90.0289 49.6387 90.2457 49.5665 90.4624C49.4942 90.5347 47.3988 100 36.0549 100ZM24.4219 91.0405C25.2167 93.2081 28.0347 98.3382 36.0549 98.3382C44.0751 98.3382 46.8208 93.2804 47.6878 91.0405H24.4219Z" fill="url(#paint6_linear_146_1640)"/>
<path d="M47.0376 86.4884H25C24.6387 86.4884 24.3497 86.2717 24.2775 85.9827L15.6069 65.6792C5.78035 58.9595 0 47.9046 0 36.0549C0 34.9711 0.0722542 33.8873 0.144509 32.7312C1.87861 14.0896 17.2688 0 36.0549 0C54.841 0 70.2312 14.0896 71.9653 32.7312C72.0376 33.8873 72.1098 34.9711 72.1098 36.0549C72.1098 47.9046 66.2572 58.9595 56.5029 65.6792L47.8324 85.9827C47.6879 86.2717 47.3988 86.4884 47.0376 86.4884ZM25.5058 84.8266H46.5318L55.0578 64.8121C55.1301 64.6676 55.2023 64.5231 55.3468 64.4509C64.8121 58.0202 70.3757 47.3989 70.3757 35.9827C70.3757 34.9711 70.3035 33.8873 70.2312 32.8035C68.6416 15.0289 53.9017 1.66185 36.0549 1.66185C18.2081 1.66185 3.39595 15.0289 1.80636 32.8757C1.7341 33.9595 1.66185 35.0434 1.66185 36.0549C1.66185 47.4711 7.29769 58.0925 16.6908 64.5231C16.8353 64.5954 16.9075 64.7399 16.9798 64.8844L25.5058 84.8266Z" fill="url(#paint7_linear_146_1640)"/>
<defs>
<linearGradient id="paint0_linear_146_1640" x1="26.8866" y1="92.4956" x2="25.4281" y2="26.5732" gradientUnits="userSpaceOnUse">
<stop offset="0.0589178" stop-color="#FF1744"/>
<stop offset="0.2402" stop-color="#FF1744"/>
<stop offset="0.4581" stop-color="#FF616F"/>
<stop offset="0.7725" stop-color="#5CC6AC"/>
<stop offset="0.9466" stop-color="#00FFCF"/>
</linearGradient>
<linearGradient id="paint1_linear_146_1640" x1="36.5447" y1="91.7829" x2="28.4153" y2="34.8134" gradientUnits="userSpaceOnUse">
<stop offset="0.0589178" stop-color="#FF1744"/>
<stop offset="0.2402" stop-color="#FF1744"/>
<stop offset="0.4581" stop-color="#FF616F"/>
<stop offset="0.7725" stop-color="#5CC6AC"/>
<stop offset="0.9466" stop-color="#00FFCF"/>
</linearGradient>
<linearGradient id="paint2_linear_146_1640" x1="52.7229" y1="93.7174" x2="50.5713" y2="14.4066" gradientUnits="userSpaceOnUse">
<stop offset="0.0589178" stop-color="#FF1744"/>
<stop offset="0.2402" stop-color="#FF1744"/>
<stop offset="0.4581" stop-color="#FF616F"/>
<stop offset="0.7725" stop-color="#5CC6AC"/>
<stop offset="0.9466" stop-color="#00FFCF"/>
</linearGradient>
<linearGradient id="paint3_linear_146_1640" x1="56.6566" y1="25.6038" x2="56.6111" y2="15.8011" gradientUnits="userSpaceOnUse">
<stop offset="0.0589178" stop-color="#FF1744"/>
<stop offset="0.2402" stop-color="#FF1744"/>
<stop offset="0.4581" stop-color="#FF616F"/>
<stop offset="0.7725" stop-color="#5CC6AC"/>
<stop offset="0.9466" stop-color="#00FFCF"/>
</linearGradient>
<linearGradient id="paint4_linear_146_1640" x1="38.593" y1="46.8466" x2="38.5475" y2="37.0439" gradientUnits="userSpaceOnUse">
<stop offset="0.0589178" stop-color="#FF1744"/>
<stop offset="0.2402" stop-color="#FF1744"/>
<stop offset="0.4581" stop-color="#FF616F"/>
<stop offset="0.7725" stop-color="#5CC6AC"/>
<stop offset="0.9466" stop-color="#00FFCF"/>
</linearGradient>
<linearGradient id="paint5_linear_146_1640" x1="20.8185" y1="36.8755" x2="20.7729" y2="27.0728" gradientUnits="userSpaceOnUse">
<stop offset="0.0589178" stop-color="#FF1744"/>
<stop offset="0.2402" stop-color="#FF1744"/>
<stop offset="0.4581" stop-color="#FF616F"/>
<stop offset="0.7725" stop-color="#5CC6AC"/>
<stop offset="0.9466" stop-color="#00FFCF"/>
</linearGradient>
<linearGradient id="paint6_linear_146_1640" x1="44.3991" y1="101.136" x2="44.3767" y2="88.6671" gradientUnits="userSpaceOnUse">
<stop offset="0.0589178" stop-color="#FF1744"/>
<stop offset="0.2402" stop-color="#FF1744"/>
<stop offset="0.4581" stop-color="#FF616F"/>
<stop offset="0.7725" stop-color="#5CC6AC"/>
<stop offset="0.9466" stop-color="#00FFCF"/>
</linearGradient>
<linearGradient id="paint7_linear_146_1640" x1="58.2744" y1="95.8634" x2="57.7011" y2="-7.06401" gradientUnits="userSpaceOnUse">
<stop offset="0.0589178" stop-color="#FF1744"/>
<stop offset="0.2402" stop-color="#FF1744"/>
<stop offset="0.4581" stop-color="#FF616F"/>
<stop offset="0.7725" stop-color="#5CC6AC"/>
<stop offset="0.9466" stop-color="#00FFCF"/>
</linearGradient>
</defs>
</svg>
