<svg width="360" height="696" viewBox="0 0 360 696" fill="none" xmlns="http://www.w3.org/2000/svg">
<path d="M-41.2314 179.838C-41.4994 185.114 -45.192 189.313 -49.9691 191.041C-64.2623 195.47 -71.3729 210.381 -73.6331 216.163C-74.1547 217.498 -74.3668 218.696 -74.579 219.895C-80.3213 261.472 0.685702 283.776 24.5985 289.496C29.2225 290.783 33.8082 292.824 37.4273 296.026C72.9407 326.501 32.3885 314.818 18.5548 310.202C15.1303 309.126 11.8413 308.358 8.37851 308.035C-38.4182 303.145 -57.6529 327.429 -64.5897 341.896C-67.1211 347.059 -71.2969 351.839 -77.0024 353.975C-92.7454 360.146 -87.6285 378.535 -81.1799 391.549C-76.6675 400.991 -76.0041 411.754 -79.9646 421.23C-91.3245 448.323 -86.2842 468.219 -78.9073 480.826C-73.0599 490.788 -63.7322 497.749 -52.3947 500.881C-46.8807 502.514 -39.8577 504.223 -33.8986 506.03C-26.7401 508.047 -20.5482 511.226 -15.3612 516.319C-12.7676 518.866 -9.69084 520.832 -6.44016 522.353C4.95636 527.301 18.2063 525.54 28.6682 519.107C61.1942 498.203 69.5922 466.883 69.5922 466.883C81.544 425.16 97.4401 415.974 101.463 414.209C102.082 413.937 102.701 413.666 103.281 414.148C119.862 418.295 87.3401 483.782 87.3401 483.782C67.2362 510.29 67.0016 541.713 67.0016 541.713C71.3271 599.506 100.515 593.7 100.515 593.7C122.084 594.921 128.456 609.443 128.456 609.443C141.855 631.567 176.612 623.317 176.612 623.317C208.585 616.288 217.139 587.848 217.139 587.848C230.223 565.525 267.324 561.774 253.862 564.733C263.958 562.514 272.195 555.215 275.71 545.566C295.663 489.279 215.966 420.341 186.143 396.949C182.795 394.365 178.387 397.773 179.704 401.617L198.284 455.735C199.195 458.651 195.889 461.208 193.566 459.279C188.883 456.175 183.349 451.971 178.666 448.868C176.034 447.075 173.037 449.495 173.947 452.412C198.051 525.846 170.135 485.773 158.093 466.738C156.834 464.711 153.469 465.451 153.49 468.021C157.365 552.542 126.989 543.026 126.989 543.026C101.485 526.95 125.087 422.635 131.746 395.762C132.692 392.031 130.001 388.422 126.229 388.235C91.0202 384.524 56.5322 426.186 46.9635 438.86C43.8899 442.788 37.312 441.253 36.9611 436.248C35.6963 422.433 58.5054 390.316 62.6605 382.966C63.1438 382.385 62.737 381.458 62.1565 380.976C50.6244 375.719 24.7433 378.97 13.0022 380.805C10.8744 381.002 9.48043 378.666 10.9303 376.924C43.214 336.966 94.5964 343.897 113.131 348.292C115.975 348.887 118.836 346.157 117.79 342.931C100.12 291.73 28.7728 246.027 28.7728 246.027C13.2915 235.134 30.7205 234.487 30.7205 234.487L70.8276 245.997C74.2521 247.074 77.1519 243.591 76.1055 240.365L60.9177 199.866C59.4647 195.713 63.6022 191.687 67.743 193.554C84.5769 201.643 103.2 228.107 114.391 246.042C116.056 248.996 120.524 247.404 120.097 243.907C118.036 224.914 124.021 202.391 124.021 202.391C129.271 182.4 124.992 174.329 121.835 167.977C120.306 165.332 119.26 162.106 118.349 159.19C105.775 123.807 24.253 114.625 24.253 114.625C11.0206 113.062 0.788419 114.973 -7.56638 118.639C-34.6613 130.896 -40.3892 163.255 -41.2314 179.838Z" fill="url(#paint0_linear_148_1874)"/>
<path d="M324.77 201.645C326.422 205.41 323.997 210.272 319.48 212.254C314.963 214.236 309.743 212.728 308.092 208.964C306.44 205.199 308.865 200.337 313.382 198.355C317.899 196.373 323.118 197.881 324.77 201.645Z" fill="#FF616F"/>
<path d="M327.251 165.749C331.016 164.097 335.878 166.522 337.86 171.039C339.842 175.556 338.334 180.776 334.57 182.427C330.806 184.079 325.943 181.655 323.961 177.138C321.827 172.273 323.487 167.401 327.251 165.749Z" fill="#FF1744"/>
<path d="M313.834 135.172C317.599 133.52 322.461 135.945 324.443 140.462C326.425 144.979 324.917 150.199 321.153 151.85C317.389 153.502 312.526 151.077 310.544 146.56C308.562 142.043 310.07 136.824 313.834 135.172Z" fill="#FF1744"/>
<path d="M276.308 151.638C280.909 149.619 286.561 152.34 288.916 157.708C291.272 163.076 289.447 169.077 284.846 171.096C280.245 173.115 274.593 170.394 272.238 165.026C270.17 159.532 271.995 153.531 276.308 151.638Z" fill="#00FFCF"/>
<path d="M279.067 192.361C281.993 191.077 286.071 193.213 287.675 196.871C289.28 200.528 288.091 204.976 285.165 206.26C281.947 207.672 278.161 205.407 276.557 201.75C274.791 197.726 276.141 193.645 279.067 192.361Z" fill="#5CC6AC"/>
<defs>
<linearGradient id="paint0_linear_148_1874" x1="271.919" y1="646.347" x2="10.3725" y2="62.8665" gradientUnits="userSpaceOnUse">
<stop offset="0.0589178" stop-color="#FF1744"/>
<stop offset="0.2402" stop-color="#FF1744"/>
<stop offset="0.4581" stop-color="#FF616F"/>
<stop offset="0.7725" stop-color="#5CC6AC"/>
<stop offset="0.9466" stop-color="#00FFCF"/>
</linearGradient>
</defs>
</svg>
