<svg width="360" height="610" viewBox="0 0 360 610" fill="none" xmlns="http://www.w3.org/2000/svg">
<g opacity="0.5">
<path d="M409.393 157.811C409.627 162.435 412.863 166.115 417.049 167.628C429.574 171.51 435.805 184.576 437.785 189.642C438.242 190.812 438.428 191.862 438.614 192.912C443.646 229.345 372.662 248.889 351.708 253.901C347.656 255.029 343.638 256.818 340.466 259.623C309.347 286.328 344.882 276.09 357.004 272.046C360.004 271.103 362.887 270.43 365.921 270.147C406.927 265.862 423.782 287.141 429.861 299.818C432.079 304.343 435.738 308.531 440.738 310.402C454.533 315.81 450.049 331.923 444.398 343.327C440.444 351.602 439.863 361.033 443.333 369.336C453.288 393.077 448.871 410.511 442.407 421.558C437.283 430.288 429.109 436.388 419.175 439.132C414.343 440.563 408.189 442.06 402.967 443.643C396.694 445.411 391.268 448.197 386.723 452.66C384.451 454.891 381.754 456.614 378.906 457.947C368.92 462.283 357.309 460.74 348.142 455.103C319.64 436.785 312.281 409.34 312.281 409.34C301.808 372.78 287.879 364.73 284.354 363.184C283.812 362.946 283.269 362.708 282.761 363.13C268.232 366.764 296.729 424.149 296.729 424.149C314.346 447.377 314.551 474.911 314.551 474.911C310.761 525.554 285.185 520.466 285.185 520.466C266.284 521.536 260.7 534.261 260.7 534.261C248.96 553.648 218.503 546.419 218.503 546.419C190.486 540.26 182.99 515.338 182.99 515.338C171.525 495.778 139.015 492.49 150.812 495.083C141.964 493.139 134.747 486.743 131.666 478.288C114.182 428.965 184.019 368.557 210.151 348.059C213.085 345.795 216.948 348.782 215.793 352.15L199.512 399.572C198.714 402.127 201.611 404.367 203.646 402.677C207.75 399.958 212.6 396.274 216.704 393.554C219.01 391.983 221.636 394.104 220.838 396.66C199.716 461.008 224.178 425.893 234.731 409.214C235.834 407.437 238.783 408.086 238.765 410.338C235.368 484.401 261.986 476.062 261.986 476.062C284.335 461.976 263.653 370.567 257.818 347.019C256.989 343.75 259.347 340.587 262.652 340.423C293.505 337.171 323.725 373.679 332.11 384.784C334.803 388.226 340.567 386.881 340.875 382.496C341.983 370.39 321.996 342.247 318.355 335.806C317.932 335.298 318.288 334.486 318.797 334.063C328.902 329.457 351.581 332.305 361.869 333.913C363.734 334.085 364.955 332.038 363.685 330.512C335.396 295.498 290.371 301.571 274.13 305.423C271.638 305.944 269.13 303.552 270.047 300.725C285.53 255.859 348.05 215.811 348.05 215.811C361.616 206.266 346.343 205.699 346.343 205.699L311.199 215.785C308.198 216.728 305.657 213.676 306.574 210.85L319.882 175.361C321.156 171.722 317.53 168.194 313.902 169.831C299.151 176.919 282.831 200.109 273.025 215.824C271.566 218.413 267.651 217.018 268.026 213.953C269.831 197.31 264.587 177.574 264.587 177.574C259.986 160.057 263.736 152.985 266.502 147.418C267.842 145.1 268.759 142.274 269.557 139.718C280.575 108.713 352.011 100.668 352.011 100.668C363.606 99.2981 372.572 100.972 379.893 104.185C403.635 114.926 408.654 143.281 409.393 157.811Z" fill="url(#paint0_linear_141_312)"/>
<path d="M88.6766 176.921C87.2293 180.219 89.3538 184.48 93.3119 186.217C97.2701 187.953 101.844 186.632 103.291 183.334C104.739 180.035 102.614 175.774 98.656 174.038C94.6978 172.301 90.1239 173.622 88.6766 176.921Z" fill="white"/>
<path d="M86.5023 145.466C83.2038 144.019 78.9432 146.143 77.2064 150.101C75.4696 154.059 76.791 158.633 80.0894 160.081C83.3879 161.528 87.6486 159.404 89.3854 155.445C91.2558 151.183 89.8008 146.913 86.5023 145.466Z" fill="white"/>
<path d="M98.2593 118.672C94.9608 117.225 90.7002 119.349 88.9634 123.307C87.2266 127.266 88.5479 131.839 91.8464 133.287C95.1449 134.734 99.4056 132.61 101.142 128.651C102.879 124.693 101.558 120.119 98.2593 118.672Z" fill="white"/>
<path d="M131.142 133.101C127.111 131.332 122.158 133.716 120.094 138.42C118.03 143.123 119.629 148.382 123.661 150.152C127.692 151.921 132.645 149.536 134.709 144.833C136.521 140.019 134.922 134.759 131.142 133.101Z" fill="white"/>
<path d="M128.725 168.785C126.161 167.66 122.588 169.532 121.181 172.737C119.775 175.942 120.817 179.839 123.381 180.964C126.201 182.201 129.518 180.217 130.925 177.012C132.472 173.487 131.289 169.91 128.725 168.785Z" fill="white"/>
</g>
<defs>
<linearGradient id="paint0_linear_141_312" x1="134.989" y1="566.599" x2="364.174" y2="55.3131" gradientUnits="userSpaceOnUse">
<stop offset="0.0589178" stop-color="#FF1744"/>
<stop offset="0.2402" stop-color="#FF1744"/>
<stop offset="0.4581" stop-color="#FF616F"/>
<stop offset="0.7725" stop-color="#5CC6AC"/>
<stop offset="0.9466" stop-color="#00FFCF"/>
</linearGradient>
</defs>
</svg>
