<svg width="89" height="100" viewBox="0 0 89 100" fill="none" xmlns="http://www.w3.org/2000/svg">
<path d="M49.5509 68.7874C49.3264 68.7874 49.1018 68.7126 48.9521 68.5629L33.6826 53.2186C33.5329 53.0689 33.4581 52.8443 33.4581 52.6198V23.8773C33.4581 23.4282 33.8323 23.0539 34.2815 23.0539C34.7306 23.0539 35.1048 23.4282 35.1048 23.8773V52.3204L50.1497 67.3653C50.4491 67.6647 50.4491 68.2635 50.1497 68.5629C50 68.7126 49.7755 68.7874 49.5509 68.7874Z" fill="url(#paint0_linear_146_1719)"/>
<path d="M50 62.3503C49.7754 62.3503 49.5509 62.2755 49.4012 62.1258C49.1018 61.8264 49.1018 61.2276 49.4012 60.9282L62.0509 48.2785V23.3533C62.0509 22.9042 62.4251 22.53 62.8742 22.53C63.3233 22.53 63.6976 22.9042 63.6976 23.3533V48.6527C63.6976 48.8773 63.6227 49.1018 63.473 49.2515L50.5988 62.1258C50.4491 62.2755 50.2245 62.3503 50 62.3503Z" fill="url(#paint1_linear_146_1719)"/>
<path d="M68.5629 100C68.4132 100 68.2635 99.9252 68.1138 99.8503L50.1497 85.1048C49.7755 84.8802 49.7006 84.3563 49.9251 83.9072C50.1497 83.5329 50.6737 83.4581 51.1228 83.6826L67.8144 97.5299L70.8832 77.4701C70.8832 77.2455 71.0329 76.9461 71.1826 76.7964C80.988 68.7126 86.6018 56.8114 86.6018 44.0868C86.6018 20.7335 67.5898 1.6467 44.1617 1.6467C20.8084 1.6467 1.72156 20.6587 1.72156 44.0868C1.72156 55.3144 6.06287 65.9431 13.997 73.9521H49.0269V34.0569C49.0269 33.6078 49.4012 33.2335 49.8503 33.2335C50.2994 33.2335 50.6737 33.6078 50.6737 34.0569V74.7755C50.6737 75.2246 50.2994 75.5988 49.8503 75.5988H13.6228C13.3982 75.5988 13.1737 75.524 13.024 75.3743C4.64072 67.0659 0 55.9132 0 44.0868C0 19.7605 19.7605 0 44.0868 0C68.4132 0 88.1737 19.7605 88.1737 44.0868C88.1737 57.1856 82.485 69.4611 72.4551 77.8443L69.3862 99.1018C69.3862 99.4012 69.2365 99.7006 68.9371 99.8503C68.8623 99.9252 68.7126 100 68.5629 100Z" fill="url(#paint2_linear_146_1719)"/>
<path d="M50 38.2485C52.2323 38.2485 54.0419 36.4389 54.0419 34.2066C54.0419 31.9743 52.2323 30.1647 50 30.1647C47.7677 30.1647 45.9581 31.9743 45.9581 34.2066C45.9581 36.4389 47.7677 38.2485 50 38.2485Z" fill="url(#paint3_linear_146_1719)"/>
<path d="M62.8743 27.3952C65.1065 27.3952 66.9162 25.5855 66.9162 23.3533C66.9162 21.121 65.1065 19.3113 62.8743 19.3113C60.642 19.3113 58.8323 21.121 58.8323 23.3533C58.8323 25.5855 60.642 27.3952 62.8743 27.3952Z" fill="url(#paint4_linear_146_1719)"/>
<path d="M34.2814 27.9192C36.5137 27.9192 38.3234 26.1095 38.3234 23.8773C38.3234 21.645 36.5137 19.8353 34.2814 19.8353C32.0492 19.8353 30.2395 21.645 30.2395 23.8773C30.2395 26.1095 32.0492 27.9192 34.2814 27.9192Z" fill="url(#paint5_linear_146_1719)"/>
<defs>
<linearGradient id="paint0_linear_146_1719" x1="47.1286" y1="73.7447" x2="46.4454" y2="19.3255" gradientUnits="userSpaceOnUse">
<stop offset="0.0589178" stop-color="#FF1744"/>
<stop offset="0.2402" stop-color="#FF1744"/>
<stop offset="0.4581" stop-color="#FF616F"/>
<stop offset="0.7725" stop-color="#5CC6AC"/>
<stop offset="0.9466" stop-color="#00FFCF"/>
</linearGradient>
<linearGradient id="paint1_linear_146_1719" x1="60.9115" y1="66.6667" x2="60.3081" y2="19.2838" gradientUnits="userSpaceOnUse">
<stop offset="0.0589178" stop-color="#FF1744"/>
<stop offset="0.2402" stop-color="#FF1744"/>
<stop offset="0.4581" stop-color="#FF616F"/>
<stop offset="0.7725" stop-color="#5CC6AC"/>
<stop offset="0.9466" stop-color="#00FFCF"/>
</linearGradient>
<linearGradient id="paint2_linear_146_1719" x1="71.2562" y1="110.839" x2="70.6293" y2="-8.16796" gradientUnits="userSpaceOnUse">
<stop offset="0.0589178" stop-color="#FF1744"/>
<stop offset="0.2402" stop-color="#FF1744"/>
<stop offset="0.4581" stop-color="#FF616F"/>
<stop offset="0.7725" stop-color="#5CC6AC"/>
<stop offset="0.9466" stop-color="#00FFCF"/>
</linearGradient>
<linearGradient id="paint3_linear_146_1719" x1="52.4909" y1="39.1247" x2="52.4462" y2="29.5043" gradientUnits="userSpaceOnUse">
<stop offset="0.0589178" stop-color="#FF1744"/>
<stop offset="0.2402" stop-color="#FF1744"/>
<stop offset="0.4581" stop-color="#FF616F"/>
<stop offset="0.7725" stop-color="#5CC6AC"/>
<stop offset="0.9466" stop-color="#00FFCF"/>
</linearGradient>
<linearGradient id="paint4_linear_146_1719" x1="65.3652" y1="28.2714" x2="65.3205" y2="18.651" gradientUnits="userSpaceOnUse">
<stop offset="0.0589178" stop-color="#FF1744"/>
<stop offset="0.2402" stop-color="#FF1744"/>
<stop offset="0.4581" stop-color="#FF616F"/>
<stop offset="0.7725" stop-color="#5CC6AC"/>
<stop offset="0.9466" stop-color="#00FFCF"/>
</linearGradient>
<linearGradient id="paint5_linear_146_1719" x1="36.7724" y1="28.7954" x2="36.7277" y2="19.175" gradientUnits="userSpaceOnUse">
<stop offset="0.0589178" stop-color="#FF1744"/>
<stop offset="0.2402" stop-color="#FF1744"/>
<stop offset="0.4581" stop-color="#FF616F"/>
<stop offset="0.7725" stop-color="#5CC6AC"/>
<stop offset="0.9466" stop-color="#00FFCF"/>
</linearGradient>
</defs>
</svg>
