<svg width="883" height="903" viewBox="0 0 883 903" fill="none" xmlns="http://www.w3.org/2000/svg">
<g opacity="0.5">
<path d="M675.444 233.482C675.793 240.332 680.59 245.784 686.796 248.027C705.364 253.778 714.601 273.137 717.538 280.643C718.215 282.376 718.491 283.932 718.766 285.488C726.226 339.467 620.99 368.424 589.925 375.85C583.918 377.521 577.96 380.171 573.259 384.328C527.123 423.894 579.805 408.726 597.776 402.734C602.225 401.336 606.498 400.339 610.996 399.92C671.79 393.571 696.778 425.099 705.789 443.881C709.078 450.585 714.503 456.791 721.915 459.563C742.366 467.574 735.719 491.449 727.342 508.345C721.48 520.604 720.618 534.578 725.763 546.88C740.52 582.054 733.973 607.886 724.389 624.253C716.793 637.187 704.675 646.224 689.947 650.29C682.783 652.411 673.66 654.629 665.918 656.975C656.619 659.594 648.575 663.721 641.836 670.333C638.467 673.64 634.47 676.192 630.247 678.167C615.442 684.591 598.229 682.305 584.638 673.953C542.383 646.813 531.473 606.15 531.473 606.15C515.947 551.982 495.296 540.056 490.07 537.765C489.266 537.412 488.462 537.059 487.708 537.685C466.169 543.07 508.417 628.091 508.417 628.091C534.534 662.506 534.839 703.302 534.839 703.302C529.22 778.335 491.302 770.796 491.302 770.796C463.281 772.382 455.003 791.235 455.003 791.235C437.597 819.959 392.444 809.248 392.444 809.248C350.908 800.123 339.795 763.198 339.795 763.198C322.798 734.217 274.6 729.347 292.089 733.189C278.973 730.307 268.272 720.831 263.705 708.304C237.785 635.227 341.32 545.726 380.062 515.356C384.411 512.001 390.139 516.426 388.427 521.416L364.289 591.677C363.106 595.464 367.402 598.783 370.419 596.279C376.502 592.249 383.692 586.791 389.776 582.762C393.195 580.434 397.089 583.577 395.905 587.363C364.592 682.702 400.858 630.676 416.502 605.963C418.137 603.331 422.509 604.292 422.482 607.629C417.448 717.361 456.909 705.006 456.909 705.006C490.042 684.136 459.38 548.704 450.729 513.815C449.5 508.971 452.996 504.285 457.897 504.042C503.636 499.224 548.44 553.315 560.87 569.769C564.863 574.868 573.409 572.875 573.865 566.378C575.508 548.441 545.876 506.745 540.478 497.202C539.851 496.448 540.379 495.245 541.133 494.619C556.115 487.794 589.737 492.014 604.99 494.397C607.754 494.652 609.565 491.619 607.681 489.358C565.741 437.48 498.99 446.479 474.913 452.185C471.218 452.957 467.501 449.413 468.86 445.226C491.814 378.751 584.502 319.415 584.502 319.415C604.614 305.273 581.972 304.433 581.972 304.433L529.869 319.376C525.42 320.774 521.653 316.252 523.012 312.064L542.742 259.484C544.63 254.093 539.255 248.866 533.876 251.291C512.007 261.792 487.813 296.15 473.275 319.435C471.112 323.27 465.308 321.203 465.863 316.663C468.54 292.004 460.766 262.763 460.766 262.763C453.944 236.809 459.504 226.331 463.604 218.083C465.591 214.649 466.951 210.461 468.134 206.675C484.468 160.738 590.374 148.817 590.374 148.817C607.564 146.788 620.856 149.268 631.71 154.028C666.909 169.942 674.35 211.954 675.444 233.482Z" fill="url(#paint0_linear_149_2109)"/>
<path d="M199.972 261.795C197.826 266.682 200.975 272.994 206.844 275.568C212.712 278.141 219.493 276.183 221.638 271.296C223.784 266.409 220.634 260.096 214.766 257.523C208.898 254.95 202.117 256.908 199.972 261.795Z" fill="white"/>
<path d="M196.748 215.191C191.858 213.047 185.542 216.194 182.967 222.059C180.392 227.923 182.351 234.7 187.241 236.844C192.131 238.989 198.448 235.841 201.023 229.977C203.795 223.661 201.638 217.335 196.748 215.191Z" fill="white"/>
<path d="M214.178 175.493C209.288 173.348 202.972 176.496 200.397 182.36C197.822 188.225 199.781 195.002 204.671 197.146C209.561 199.291 215.878 196.143 218.453 190.278C221.027 184.414 219.068 177.637 214.178 175.493Z" fill="white"/>
<path d="M262.929 196.871C256.952 194.25 249.609 197.782 246.549 204.751C243.49 211.72 245.86 219.512 251.837 222.133C257.814 224.754 265.157 221.222 268.216 214.253C270.903 207.12 268.532 199.328 262.929 196.871Z" fill="white"/>
<path d="M259.345 249.741C255.544 248.074 250.246 250.847 248.161 255.596C246.076 260.344 247.621 266.118 251.422 267.785C255.603 269.619 260.521 266.679 262.606 261.93C264.899 256.707 263.146 251.408 259.345 249.741Z" fill="white"/>
</g>
<defs>
<linearGradient id="paint0_linear_149_2109" x1="268.631" y1="839.148" x2="608.054" y2="81.4617" gradientUnits="userSpaceOnUse">
<stop offset="0.0589178" stop-color="#FF1744"/>
<stop offset="0.2402" stop-color="#FF1744"/>
<stop offset="0.4581" stop-color="#FF616F"/>
<stop offset="0.7725" stop-color="#5CC6AC"/>
<stop offset="0.9466" stop-color="#00FFCF"/>
</linearGradient>
</defs>
</svg>
