<svg width="100" height="101" viewBox="0 0 100 101" fill="none" xmlns="http://www.w3.org/2000/svg">
<path d="M34.623 98.5084L34.5014 98.5089V98.5084H34.623ZM34.623 98.5084V98.3747L34.623 98.3738C34.6229 98.3669 34.6228 98.3242 34.6246 98.2488L34.6219 98.2488L34.6224 98.3747L34.623 98.5084ZM51.0509 77.5196L51.0001 77.3781L51.0509 77.5196Z" fill="url(#paint0_linear_146_1747)" stroke="url(#paint1_linear_146_1747)"/>
<mask id="path-2-inside-1_146_1747" fill="white">
<path d="M43.9504 66.7333L43.7655 67.3135L93.0468 82.9936L93.2316 82.4133L43.9504 66.7333Z"/>
</mask>
<path d="M43.9504 66.7333L43.7655 67.3135L93.0468 82.9936L93.2316 82.4133L43.9504 66.7333Z" fill="url(#paint2_linear_146_1747)"/>
<path d="M43.7655 67.3135L42.8126 67.0103L42.509 67.9632L43.462 68.2664L43.7655 67.3135ZM43.9504 66.7333L44.2539 65.7805L43.301 65.4773L42.9974 66.4301L43.9504 66.7333ZM93.2316 82.4133L94.1845 82.7165L94.4881 81.7637L93.5351 81.4605L93.2316 82.4133ZM93.0468 82.9936L92.7432 83.9464L93.6962 84.2496L93.9997 83.2968L93.0468 82.9936ZM44.7184 67.6167L44.9033 67.0365L42.9974 66.4301L42.8126 67.0103L44.7184 67.6167ZM43.6468 67.6861L92.9281 83.3662L93.5351 81.4605L44.2539 65.7805L43.6468 67.6861ZM92.2787 82.1101L92.0938 82.6904L93.9997 83.2968L94.1845 82.7165L92.2787 82.1101ZM93.3503 82.0408L44.069 66.3607L43.462 68.2664L92.7432 83.9464L93.3503 82.0408Z" fill="url(#paint3_linear_146_1747)" mask="url(#path-2-inside-1_146_1747)"/>
<mask id="path-4-inside-2_146_1747" fill="white">
<path d="M71.1882 77.5554H65.8163V72.1868H71.1882V77.5554ZM66.749 76.6232H70.2554V73.1181H66.749V76.6232Z"/>
</mask>
<path d="M71.1882 77.5554H65.8163V72.1868H71.1882V77.5554ZM66.749 76.6232H70.2554V73.1181H66.749V76.6232Z" fill="url(#paint4_linear_146_1747)"/>
<path d="M71.1882 77.5554V78.5554H72.1882V77.5554H71.1882ZM65.8163 77.5554H64.8163V78.5554H65.8163V77.5554ZM65.8163 72.1868V71.1868H64.8163V72.1868H65.8163ZM71.1882 72.1868H72.1882V71.1868H71.1882V72.1868ZM66.749 76.6232H65.749V77.6232H66.749V76.6232ZM70.2554 76.6232V77.6232H71.2554V76.6232H70.2554ZM70.2554 73.1181H71.2554V72.1181H70.2554V73.1181ZM66.749 73.1181V72.1181H65.749V73.1181H66.749ZM71.1882 76.5554H65.8163V78.5554H71.1882V76.5554ZM66.8163 77.5554V72.1868H64.8163V77.5554H66.8163ZM65.8163 73.1868H71.1882V71.1868H65.8163V73.1868ZM70.1882 72.1868V77.5554H72.1882V72.1868H70.1882ZM66.749 77.6232H70.2554V75.6232H66.749V77.6232ZM71.2554 76.6232V73.1181H69.2554V76.6232H71.2554ZM70.2554 72.1181H66.749V74.1181H70.2554V72.1181ZM65.749 73.1181V76.6232H67.749V73.1181H65.749Z" fill="url(#paint5_linear_146_1747)" mask="url(#path-4-inside-2_146_1747)"/>
<line x1="43.1152" y1="43.0259" x2="65.7475" y2="65.2095" stroke="url(#paint6_linear_146_1747)" stroke-width="0.75"/>
<circle cx="97.3414" cy="48.2561" r="1.93902" fill="url(#paint7_linear_146_1747)" stroke="url(#paint8_linear_146_1747)"/>
<circle cx="33.9268" cy="98.561" r="1.93902" fill="url(#paint9_linear_146_1747)" stroke="url(#paint10_linear_146_1747)"/>
<path d="M21.122 37.8903C25.2989 35.7298 34.5613 29.2904 38.1952 20.8171" stroke="url(#paint11_linear_146_1747)" stroke-width="0.75"/>
<path d="M4.65851 29.9634C10.9985 26.7613 25.0574 17.2173 30.5731 4.65854" stroke="url(#paint12_linear_146_1747)" stroke-width="0.75"/>
<path d="M41.2792 43.7684C42.9323 43.7684 44.2724 42.4291 44.2724 40.777C44.2724 39.1249 42.9323 37.7856 41.2792 37.7856C39.626 37.7856 38.2859 39.1249 38.2859 40.777C38.2859 42.4291 39.626 43.7684 41.2792 43.7684Z" fill="url(#paint13_linear_146_1747)"/>
<path d="M16.7041 41.3635C16.7041 41.3635 -8.39697 26.1118 4.8699 8.04102C4.8699 8.04102 19.8441 -11.9897 42.4313 15.5194L38.5555 20.7281C38.5555 20.7281 49.8535 30.0746 55.3163 31.7711L65.5339 63.3262C65.5339 63.3262 66.9072 64.4207 65.8339 65.287C65.8339 65.287 64.9732 66.2494 63.8284 64.9694L32.4317 54.7322C32.4317 54.7322 25.3688 40.7711 21.4328 37.9248L16.7041 41.3635Z" stroke="url(#paint14_linear_146_1747)" stroke-width="1.5" stroke-miterlimit="10"/>
<defs>
<linearGradient id="paint0_linear_146_1747" x1="85.7869" y1="103.903" x2="85.5735" y2="44.7054" gradientUnits="userSpaceOnUse">
<stop offset="0.0589178" stop-color="#FF1744"/>
<stop offset="0.2402" stop-color="#FF1744"/>
<stop offset="0.4581" stop-color="#FF616F"/>
<stop offset="0.7725" stop-color="#5CC6AC"/>
<stop offset="0.9466" stop-color="#00FFCF"/>
</linearGradient>
<linearGradient id="paint1_linear_146_1747" x1="85.7869" y1="103.903" x2="85.5735" y2="44.7054" gradientUnits="userSpaceOnUse">
<stop offset="0.0589178" stop-color="#FF1744"/>
<stop offset="0.2402" stop-color="#FF1744"/>
<stop offset="0.4581" stop-color="#FF616F"/>
<stop offset="0.7725" stop-color="#5CC6AC"/>
<stop offset="0.9466" stop-color="#00FFCF"/>
</linearGradient>
<linearGradient id="paint2_linear_146_1747" x1="98.538" y1="84.2243" x2="41.4052" y2="88.0749" gradientUnits="userSpaceOnUse">
<stop offset="0.0589178" stop-color="#FF1744"/>
<stop offset="0.2402" stop-color="#FF1744"/>
<stop offset="0.4581" stop-color="#FF616F"/>
<stop offset="0.7725" stop-color="#5CC6AC"/>
<stop offset="0.9466" stop-color="#00FFCF"/>
</linearGradient>
<linearGradient id="paint3_linear_146_1747" x1="98.538" y1="84.2243" x2="41.4052" y2="88.0749" gradientUnits="userSpaceOnUse">
<stop offset="0.0589178" stop-color="#FF1744"/>
<stop offset="0.2402" stop-color="#FF1744"/>
<stop offset="0.4581" stop-color="#FF616F"/>
<stop offset="0.7725" stop-color="#5CC6AC"/>
<stop offset="0.9466" stop-color="#00FFCF"/>
</linearGradient>
<linearGradient id="paint4_linear_146_1747" x1="70.1575" y1="78.1373" x2="70.1279" y2="71.7482" gradientUnits="userSpaceOnUse">
<stop offset="0.0589178" stop-color="#FF1744"/>
<stop offset="0.2402" stop-color="#FF1744"/>
<stop offset="0.4581" stop-color="#FF616F"/>
<stop offset="0.7725" stop-color="#5CC6AC"/>
<stop offset="0.9466" stop-color="#00FFCF"/>
</linearGradient>
<linearGradient id="paint5_linear_146_1747" x1="70.1575" y1="78.1373" x2="70.1279" y2="71.7482" gradientUnits="userSpaceOnUse">
<stop offset="0.0589178" stop-color="#FF1744"/>
<stop offset="0.2402" stop-color="#FF1744"/>
<stop offset="0.4581" stop-color="#FF616F"/>
<stop offset="0.7725" stop-color="#5CC6AC"/>
<stop offset="0.9466" stop-color="#00FFCF"/>
</linearGradient>
<linearGradient id="paint6_linear_146_1747" x1="60.3667" y1="62.0126" x2="61.1997" y2="61.1625" gradientUnits="userSpaceOnUse">
<stop offset="0.0589178" stop-color="#FF1744"/>
<stop offset="0.2402" stop-color="#FF1744"/>
<stop offset="0.4581" stop-color="#FF616F"/>
<stop offset="0.7725" stop-color="#5CC6AC"/>
<stop offset="0.9466" stop-color="#00FFCF"/>
</linearGradient>
<linearGradient id="paint7_linear_146_1747" x1="98.8445" y1="51.2239" x2="98.8176" y2="45.4186" gradientUnits="userSpaceOnUse">
<stop offset="0.0589178" stop-color="#FF1744"/>
<stop offset="0.2402" stop-color="#FF1744"/>
<stop offset="0.4581" stop-color="#FF616F"/>
<stop offset="0.7725" stop-color="#5CC6AC"/>
<stop offset="0.9466" stop-color="#00FFCF"/>
</linearGradient>
<linearGradient id="paint8_linear_146_1747" x1="98.8445" y1="51.2239" x2="98.8176" y2="45.4186" gradientUnits="userSpaceOnUse">
<stop offset="0.0589178" stop-color="#FF1744"/>
<stop offset="0.2402" stop-color="#FF1744"/>
<stop offset="0.4581" stop-color="#FF616F"/>
<stop offset="0.7725" stop-color="#5CC6AC"/>
<stop offset="0.9466" stop-color="#00FFCF"/>
</linearGradient>
<linearGradient id="paint9_linear_146_1747" x1="35.4299" y1="101.529" x2="35.4029" y2="95.7235" gradientUnits="userSpaceOnUse">
<stop offset="0.0589178" stop-color="#FF1744"/>
<stop offset="0.2402" stop-color="#FF1744"/>
<stop offset="0.4581" stop-color="#FF616F"/>
<stop offset="0.7725" stop-color="#5CC6AC"/>
<stop offset="0.9466" stop-color="#00FFCF"/>
</linearGradient>
<linearGradient id="paint10_linear_146_1747" x1="35.4299" y1="101.529" x2="35.4029" y2="95.7235" gradientUnits="userSpaceOnUse">
<stop offset="0.0589178" stop-color="#FF1744"/>
<stop offset="0.2402" stop-color="#FF1744"/>
<stop offset="0.4581" stop-color="#FF616F"/>
<stop offset="0.7725" stop-color="#5CC6AC"/>
<stop offset="0.9466" stop-color="#00FFCF"/>
</linearGradient>
<linearGradient id="paint11_linear_146_1747" x1="34.9194" y1="39.7409" x2="34.8251" y2="19.4224" gradientUnits="userSpaceOnUse">
<stop offset="0.0589178" stop-color="#FF1744"/>
<stop offset="0.2402" stop-color="#FF1744"/>
<stop offset="0.4581" stop-color="#FF616F"/>
<stop offset="0.7725" stop-color="#5CC6AC"/>
<stop offset="0.9466" stop-color="#00FFCF"/>
</linearGradient>
<linearGradient id="paint12_linear_146_1747" x1="25.601" y1="32.7063" x2="25.4644" y2="2.59143" gradientUnits="userSpaceOnUse">
<stop offset="0.0589178" stop-color="#FF1744"/>
<stop offset="0.2402" stop-color="#FF1744"/>
<stop offset="0.4581" stop-color="#FF616F"/>
<stop offset="0.7725" stop-color="#5CC6AC"/>
<stop offset="0.9466" stop-color="#00FFCF"/>
</linearGradient>
<linearGradient id="paint13_linear_146_1747" x1="43.1238" y1="44.4169" x2="43.0908" y2="37.2968" gradientUnits="userSpaceOnUse">
<stop offset="0.0589178" stop-color="#FF1744"/>
<stop offset="0.2402" stop-color="#FF1744"/>
<stop offset="0.4581" stop-color="#FF616F"/>
<stop offset="0.7725" stop-color="#5CC6AC"/>
<stop offset="0.9466" stop-color="#00FFCF"/>
</linearGradient>
<linearGradient id="paint14_linear_146_1747" x1="53.7258" y1="72.6402" x2="53.3719" y2="-4.2798" gradientUnits="userSpaceOnUse">
<stop offset="0.0589178" stop-color="#FF1744"/>
<stop offset="0.2402" stop-color="#FF1744"/>
<stop offset="0.4581" stop-color="#FF616F"/>
<stop offset="0.7725" stop-color="#5CC6AC"/>
<stop offset="0.9466" stop-color="#00FFCF"/>
</linearGradient>
</defs>
</svg>
