<svg id="a3105d91-f7c2-4f08-9b98-2f044aa0bb53" data-name="Capa 1" xmlns="http://www.w3.org/2000/svg"
     xmlns:xlink="http://www.w3.org/1999/xlink" viewBox="0 0 176.4 123.69">
  <defs>
    <style>
      .ac48b26a-e68a-47ff-a701-88d4e578a894{fill:none;}.b57edf8c-1bc9-4f25-8589-5b02b897e8b4{clip-path:url(#b1c8a385-9755-45be-a2cd-795db61e2e65);}.a548a555-ea76-4b5d-b9e6-21d7c30ecb2b{fill:url(#a0373590-b5f3-4600-b732-83d920a23a32);}.efca82ea-2243-4122-9048-4d9f1246758f{clip-path:url(#a43f058d-e93a-4b25-8d01-991bd5de6d7f);}.f284321f-cab7-4781-b1a0-b562698f0a1b{fill:url(#ba30a29a-6029-4bae-9903-faeec7550bef);}.a533233c-b6c6-4348-bc89-0342eaba4f73,.a56dbac3-7541-4ecf-8072-6fe2238e7fdc,.e024d25e-4072-404a-931b-9d1613bcdecd,.f57478e9-1bad-4813-9a1b-97ae068573bc{fill:#fff;}.a56dbac3-7541-4ecf-8072-6fe2238e7fdc{stroke:#010101;}.a56dbac3-7541-4ecf-8072-6fe2238e7fdc,.e024d25e-4072-404a-931b-9d1613bcdecd{stroke-miterlimit:10;}.e024d25e-4072-404a-931b-9d1613bcdecd{stroke:#000;}.a533233c-b6c6-4348-bc89-0342eaba4f73,.f57478e9-1bad-4813-9a1b-97ae068573bc{isolation:isolate;font-family:ArialMT,
      Arial;}.a533233c-b6c6-4348-bc89-0342eaba4f73{font-size:23.74px;}.f57478e9-1bad-4813-9a1b-97ae068573bc{font-size:11.87px;}
    </style>
    <clipPath id="b1c8a385-9755-45be-a2cd-795db61e2e65" transform="translate(26.35 16.35)">
      <path class="ac48b26a-e68a-47ff-a701-88d4e578a894"
            d="M56.31,49.76a.26.26,0,0,0-.21.3.28.28,0,0,0,.21.21c9.1,1.68,11.54,5.14,11.54,5.14a6.25,6.25,0,0,1,2,2.92,1,1,0,0,1-.94,1.06,1,1,0,0,1-.57-.14,18.23,18.23,0,0,0-9.6-3.3s-2.69-.54,0,.53S63,61.86,63,61.86c1.08,2.68-.53,3.22-.53,3.22a17.69,17.69,0,0,0-9-6.71.41.41,0,0,0-.51.28.45.45,0,0,0,.08.37,20.17,20.17,0,0,1,4.57,13c-.54,10.21,7,10.75,7,10.75,4,.67,6.17-1.18,7.21-2.66a3.29,3.29,0,0,1,3-1.34c4.27.37,5.88-.84,5.88-.84,4.57-1.88,3.65-7.52,3-10.14A3.19,3.19,0,0,1,84,65.69,9.72,9.72,0,0,0,85,61.86C84.71,51.07,74.85,48.77,66.5,48.77a55.66,55.66,0,0,0-10.22,1"/>
    </clipPath>
    <linearGradient id="a0373590-b5f3-4600-b732-83d920a23a32" x1="-1052.04" y1="316.57" x2="-1051.04" y2="316.57"
                    gradientTransform="translate(102168.3 -30669.19) scale(97.09)" gradientUnits="userSpaceOnUse">
      <stop offset="0" stop-color="#e72b4a"/>
      <stop offset="0.24" stop-color="#e72b4a"/>
      <stop offset="0.46" stop-color="#ec6171"/>
      <stop offset="1" stop-color="#6bc1b0"/>
    </linearGradient>
    <clipPath id="a43f058d-e93a-4b25-8d01-991bd5de6d7f" transform="translate(26.35 16.35)">
      <path class="ac48b26a-e68a-47ff-a701-88d4e578a894"
            d="M26.09,7.16A2.15,2.15,0,0,1,24,8.28c-2.51-.26-4.59,1.54-5.3,2.25a2.55,2.55,0,0,0-.41.51C14.57,17,25.47,25.9,28.78,28.4a5,5,0,0,1,1.47,1.85c3.41,7-2,2.51-3.82.93a7.6,7.6,0,0,0-1.4-1c-6.86-3.91-11.4-1.46-13.46.29a4,4,0,0,1-2.71,1C6,31.34,5.58,34.47,5.68,37a6.07,6.07,0,0,1-1.8,4.62C.35,45-.21,48.34.06,50.76a7.34,7.34,0,0,0,2.69,4.83l2.48,2a7,7,0,0,1,2.14,2.85,4.65,4.65,0,0,0,1,1.49A6.39,6.39,0,0,0,14,63.8a16.35,16.35,0,0,0,9.84-5.2c4.66-5.59,7.71-5.93,8.43-5.92a.45.45,0,0,1,.29.09c2.28,1.78-7.1,9.6-7.1,9.6a17.77,17.77,0,0,0-7,7.52C15.21,79,20,80.1,20,80.1a5.27,5.27,0,0,1,3.21,4.33c.53,4.3,6.45,5.37,6.45,5.37a9.29,9.29,0,0,0,8.55-2.68c2.34-1.67,5.3-1.48,7.21-1.09a4.94,4.94,0,0,0,4.61-1.46c6.85-7.3-.74-23.24-3.73-28.81a.68.68,0,0,0-.92-.29.66.66,0,0,0-.36.56L44.3,65.6a.52.52,0,0,1-1,.23c-.49-.8-1.09-1.8-1.56-2.6a.52.52,0,0,0-1,.22c-1.28,12.91-2.82,4.88-3.39,1.12a.42.42,0,0,0-.49-.34.4.4,0,0,0-.31.25c-5.11,13.24-9.1,9.74-9.1,9.74C24.74,70,35.35,55.65,38.16,52A1,1,0,0,0,38,50.54a.71.71,0,0,0-.18-.12c-5.16-2.92-13.21,1.13-15.55,2.44A.94.94,0,0,1,21,52.52a.91.91,0,0,1-.09-.72c.71-2.19,6.36-5.6,7.5-6.43a.26.26,0,0,0,0-.36h0c-1.41-1.58-5.62-2.84-7.52-3.35a.41.41,0,0,1-.27-.5.37.37,0,0,1,.2-.24c7.6-4,15,.59,17.56,2.46a.66.66,0,0,0,.94-.06.7.7,0,0,0,.17-.37c.73-9-7.14-20.83-7.14-20.83-1.61-2.69,1.08-1.61,1.08-1.61L38.81,25a.72.72,0,0,0,1-.11.77.77,0,0,0,.16-.4l.38-7.25a.84.84,0,0,1,.89-.79.88.88,0,0,1,.58.29c2,2.35,3.09,7.66,3.6,11.18a.51.51,0,0,0,.61.4.51.51,0,0,0,.39-.33,21.68,21.68,0,0,1,3.4-6.11c2.15-2.69,2-4.23,2-5.41a10.42,10.42,0,0,1,0-1.58C52.25,8.58,40.44,1.67,40.44,1.67A10.25,10.25,0,0,0,35.25.12c-4.91,0-7.94,4.59-9.2,7"/>
    </clipPath>
    <linearGradient id="ba30a29a-6029-4bae-9903-faeec7550bef" x1="-1052.04" y1="316.52" x2="-1051.04" y2="316.52"
                    gradientTransform="translate(102120.24 -30685.75) scale(97.09)"
                    xlink:href="#a0373590-b5f3-4600-b732-83d920a23a32"/>
  </defs>
  <g class="b57edf8c-1bc9-4f25-8589-5b02b897e8b4">
    <rect class="a548a555-ea76-4b5d-b9e6-21d7c30ecb2b" x="47.61" y="45.38" width="42.92" height="41.48"
          transform="translate(11.51 128.34) rotate(-72.41)"/>
  </g>
  <g class="efca82ea-2243-4122-9048-4d9f1246758f">
    <rect class="f284321f-cab7-4781-b1a0-b562698f0a1b" x="-23.52" y="4.53" width="103.79" height="81.92"
          transform="translate(2.79 75.15) rotate(-72.41)"/>
  </g>
  <path class="a56dbac3-7541-4ecf-8072-6fe2238e7fdc"
        d="M60,16.89c.07-.05.16,0,.11.1-1.35,1.88-8.67,12.89-10,21.22,0,0-1,7-3,9.47a1.32,1.32,0,0,1-1.86.2,1.35,1.35,0,0,1-.46-.75c-.39-1.8-.37-5.74,3.19-13.22,0,0,7.69-14.35,12-17"
        transform="translate(26.35 16.35)"/>
  <path class="e024d25e-4072-404a-931b-9d1613bcdecd"
        d="M67.85,15.37a1.35,1.35,0,0,1-2.7,0A1.34,1.34,0,0,1,66.49,14h0a1.34,1.34,0,0,1,1.34,1.34"
        transform="translate(26.35 16.35)"/>
  <path class="e024d25e-4072-404a-931b-9d1613bcdecd"
        d="M70.81,10.27a1.34,1.34,0,1,1-1.35,1.34,1.34,1.34,0,0,1,1.35-1.34h0" transform="translate(26.35 16.35)"/>
  <path class="e024d25e-4072-404a-931b-9d1613bcdecd"
        d="M70.81,4.89a1.35,1.35,0,1,1-1.35,1.35h0a1.34,1.34,0,0,1,1.35-1.35" transform="translate(26.35 16.35)"/>
  <path class="e024d25e-4072-404a-931b-9d1613bcdecd"
        d="M64.09,4.89a1.62,1.62,0,1,1-1.61,1.63h0a1.62,1.62,0,0,1,1.61-1.62" transform="translate(26.35 16.35)"/>
  <path class="e024d25e-4072-404a-931b-9d1613bcdecd"
        d="M61.94,11.34A1.08,1.08,0,0,1,63,12.41a1.08,1.08,0,1,1-2.16,0h0a1.07,1.07,0,0,1,1.07-1.08"
        transform="translate(26.35 16.35)"/>
  <text class="a533233c-b6c6-4348-bc89-0342eaba4f73" transform="translate(82.39 62.78)">Hibiscus</text>
  <text class="f57478e9-1bad-4813-9a1b-97ae068573bc" transform="translate(115.05 73.8)">make it real</text>
</svg>
