<?xml version="1.0" encoding="utf-8"?>
<svg version="1.1" id="Capa_1" xmlns="http://www.w3.org/2000/svg" xmlns:xlink="http://www.w3.org/1999/xlink" x="0px" y="0px" viewBox="0 0 100 101" style="enable-background:new 0 0 100 101;" xml:space="preserve">
<style type="text/css">
	.st0{fill:none;stroke:url(#SVGID_1_);stroke-width:0.75;stroke-miterlimit:10;}
	.st1{fill:url(#SVGID_00000080193133499946809120000004792209073727750830_);}
	.st2{fill:#FFFFFF;filter:url(#Adobe_OpacityMaskFilter);}

		.st3{mask:url(#path-2-inside-1_146_1747_00000183246886677545185360000014624360357993919126_);fill:url(#SVGID_00000166677566588188425460000014564292755722190260_);}
	.st4{fill:url(#SVGID_00000131366643132992326540000010756944885006151317_);}
	.st5{fill:#FFFFFF;filter:url(#Adobe_OpacityMaskFilter_00000036946181497362392160000008349124018307744410_);}

		.st6{mask:url(#path-4-inside-2_146_1747_00000112598415955930926940000013856425303162183309_);fill:url(#SVGID_00000016771368157076443830000003400470302418665398_);}
	.st7{fill:none;stroke:url(#SVGID_00000021087898001229082210000017853841155436196007_);stroke-width:0.75;}
	.st8{fill:none;stroke:url(#SVGID_00000085958206883813072880000008089707448020250281_);stroke-width:0.75;}
	.st9{fill:none;stroke:url(#SVGID_00000115496429901306435150000011564792911498043060_);stroke-width:0.75;}
	.st10{fill:url(#SVGID_00000083046512157557772730000004996291381025819306_);}
	.st11{fill:none;stroke:url(#SVGID_00000124149980308800263490000015411876887551095212_);stroke-width:1.5;stroke-miterlimit:10;}

		.st12{fill:url(#SVGID_00000142156631343135094510000004995713329626033541_);stroke:url(#SVGID_00000080174490267225141660000015783972778151016326_);}

		.st13{fill:url(#SVGID_00000158744623616811340360000004527428383900733592_);stroke:url(#SVGID_00000057858881983329887870000000012543176345387175_);}
</style>
<linearGradient id="SVGID_1_" gradientUnits="userSpaceOnUse" x1="65.7452" y1="98.4532" x2="65.5644" y2="48.2973">
	<stop  offset="5.891781e-02" style="stop-color:#FF1744"/>
	<stop  offset="0.2402" style="stop-color:#FF1744"/>
	<stop  offset="0.4581" style="stop-color:#FF616F"/>
	<stop  offset="0.7725" style="stop-color:#5CC6AC"/>
	<stop  offset="0.9466" style="stop-color:#00FFCF"/>
</linearGradient>
<path class="st0" d="M33.6,98.6c0,0,0.4-25.5,35-23.7c34.5,1.8,28.8-26.6,28.8-26.6"/>
<linearGradient id="SVGID_00000163050556529280938340000005481314675933836691_" gradientUnits="userSpaceOnUse" x1="97.7741" y1="29.1096" x2="40.6413" y2="25.259" gradientTransform="matrix(1 0 0 -1 0 102)">
	<stop  offset="5.891781e-02" style="stop-color:#FF1744"/>
	<stop  offset="0.2402" style="stop-color:#FF1744"/>
	<stop  offset="0.4581" style="stop-color:#FF616F"/>
	<stop  offset="0.7725" style="stop-color:#5CC6AC"/>
	<stop  offset="0.9466" style="stop-color:#00FFCF"/>
</linearGradient>
<path style="fill:url(#SVGID_00000163050556529280938340000005481314675933836691_);" d="M44,66.7l-0.2,0.6L93,83l0.2-0.6L44,66.7z"
	/>
<defs>
	<filter id="Adobe_OpacityMaskFilter" filterUnits="userSpaceOnUse" x="42.5" y="65.5" width="52" height="18.8">
		<feColorMatrix  type="matrix" values="1 0 0 0 0  0 1 0 0 0  0 0 1 0 0  0 0 0 1 0"/>
	</filter>
</defs>
<mask maskUnits="userSpaceOnUse" x="42.5" y="65.5" width="52" height="18.8" id="path-2-inside-1_146_1747_00000183246886677545185360000014624360357993919126_">
	<path class="st2" d="M44,66.7l-0.2,0.6L93,83l0.2-0.6L44,66.7z"/>
</mask>
<linearGradient id="SVGID_00000150065687591348807710000016987269949440643742_" gradientUnits="userSpaceOnUse" x1="97.7741" y1="29.1096" x2="40.6413" y2="25.259" gradientTransform="matrix(1 0 0 -1 0 102)">
	<stop  offset="5.891781e-02" style="stop-color:#FF1744"/>
	<stop  offset="0.2402" style="stop-color:#FF1744"/>
	<stop  offset="0.4581" style="stop-color:#FF616F"/>
	<stop  offset="0.7725" style="stop-color:#5CC6AC"/>
	<stop  offset="0.9466" style="stop-color:#00FFCF"/>
</linearGradient>
<path style="mask:url(#path-2-inside-1_146_1747_00000183246886677545185360000014624360357993919126_);fill:url(#SVGID_00000150065687591348807710000016987269949440643742_);" d="
	M43.8,67.3l-1-0.3l-0.3,1l1,0.3L43.8,67.3z M44,66.7l0.3-1l-1-0.3l-0.3,1L44,66.7z M93.2,82.4l1,0.3l0.3-1l-1-0.3L93.2,82.4z M93,83
	l-0.3,1l1,0.3l0.3-1L93,83z M44.7,67.6l0.2-0.6L43,66.4L42.8,67L44.7,67.6z M43.6,67.7l49.3,15.7l0.6-1.9L44.3,65.8L43.6,67.7z
	 M92.3,82.1l-0.2,0.6l1.9,0.6l0.2-0.6L92.3,82.1z M93.4,82L44.1,66.4l-0.6,1.9l49.3,15.7L93.4,82z"/>
<linearGradient id="SVGID_00000015336104070356688810000007682007472589015720_" gradientUnits="userSpaceOnUse" x1="68.5174" y1="23.8551" x2="68.4878" y2="30.2442" gradientTransform="matrix(1 0 0 -1 0 102)">
	<stop  offset="5.891781e-02" style="stop-color:#FF1744"/>
	<stop  offset="0.2402" style="stop-color:#FF1744"/>
	<stop  offset="0.4581" style="stop-color:#FF616F"/>
	<stop  offset="0.7725" style="stop-color:#5CC6AC"/>
	<stop  offset="0.9466" style="stop-color:#00FFCF"/>
</linearGradient>
<path style="fill:url(#SVGID_00000015336104070356688810000007682007472589015720_);" d="M71.2,77.6h-5.4v-5.4h5.4V77.6z M66.7,76.6
	h3.5v-3.5h-3.5V76.6z"/>
<defs>

		<filter id="Adobe_OpacityMaskFilter_00000048496667972894278360000015106647520538529464_" filterUnits="userSpaceOnUse" x="64.8" y="71.2" width="7.4" height="7.4">
		<feColorMatrix  type="matrix" values="1 0 0 0 0  0 1 0 0 0  0 0 1 0 0  0 0 0 1 0"/>
	</filter>
</defs>
<mask maskUnits="userSpaceOnUse" x="64.8" y="71.2" width="7.4" height="7.4" id="path-4-inside-2_146_1747_00000112598415955930926940000013856425303162183309_">
	<path style="fill:#FFFFFF;filter:url(#Adobe_OpacityMaskFilter_00000048496667972894278360000015106647520538529464_);" d="
		M71.2,77.6h-5.4v-5.4h5.4V77.6z M66.7,76.6h3.5v-3.5h-3.5V76.6z"/>
</mask>
<linearGradient id="SVGID_00000079480358947318120560000018197515410868473011_" gradientUnits="userSpaceOnUse" x1="68.5174" y1="23.8551" x2="68.4878" y2="30.2442" gradientTransform="matrix(1 0 0 -1 0 102)">
	<stop  offset="5.891781e-02" style="stop-color:#FF1744"/>
	<stop  offset="0.2402" style="stop-color:#FF1744"/>
	<stop  offset="0.4581" style="stop-color:#FF616F"/>
	<stop  offset="0.7725" style="stop-color:#5CC6AC"/>
	<stop  offset="0.9466" style="stop-color:#00FFCF"/>
</linearGradient>
<path style="mask:url(#path-4-inside-2_146_1747_00000112598415955930926940000013856425303162183309_);fill:url(#SVGID_00000079480358947318120560000018197515410868473011_);" d="
	M71.2,77.6v1h1v-1H71.2z M65.8,77.6h-1v1h1V77.6z M65.8,72.2v-1h-1v1H65.8z M71.2,72.2h1v-1h-1V72.2z M66.7,76.6h-1v1h1V76.6z
	 M70.3,76.6v1h1v-1H70.3z M70.3,73.1h1v-1h-1V73.1z M66.7,73.1v-1h-1v1H66.7z M71.2,76.6h-5.4v2h5.4V76.6z M66.8,77.6v-5.4h-2v5.4
	H66.8z M65.8,73.2h5.4v-2h-5.4V73.2z M70.2,72.2v5.4h2v-5.4H70.2z M66.7,77.6h3.5v-2h-3.5V77.6z M71.3,76.6v-3.5h-2v3.5H71.3z
	 M70.3,72.1h-3.5v2h3.5V72.1z M65.7,73.1v3.5h2v-3.5H65.7z"/>
<linearGradient id="SVGID_00000129188522228174010110000005911588830259654577_" gradientUnits="userSpaceOnUse" x1="53.3921" y1="46.8217" x2="54.2251" y2="47.6718" gradientTransform="matrix(1 0 0 -1 0 102)">
	<stop  offset="5.891781e-02" style="stop-color:#FF1744"/>
	<stop  offset="0.2402" style="stop-color:#FF1744"/>
	<stop  offset="0.4581" style="stop-color:#FF616F"/>
	<stop  offset="0.7725" style="stop-color:#5CC6AC"/>
	<stop  offset="0.9466" style="stop-color:#00FFCF"/>
</linearGradient>
<line style="fill:none;stroke:url(#SVGID_00000129188522228174010110000005911588830259654577_);stroke-width:0.75;" x1="43.1" y1="43" x2="65.7" y2="65.2"/>
<linearGradient id="SVGID_00000065758473708696253260000003361316752310409885_" gradientUnits="userSpaceOnUse" x1="29.7935" y1="62.2353" x2="29.6992" y2="82.5538" gradientTransform="matrix(1 0 0 -1 0 102)">
	<stop  offset="5.891781e-02" style="stop-color:#FF1744"/>
	<stop  offset="0.2402" style="stop-color:#FF1744"/>
	<stop  offset="0.4581" style="stop-color:#FF616F"/>
	<stop  offset="0.7725" style="stop-color:#5CC6AC"/>
	<stop  offset="0.9466" style="stop-color:#00FFCF"/>
</linearGradient>
<path style="fill:none;stroke:url(#SVGID_00000065758473708696253260000003361316752310409885_);stroke-width:0.75;" d="M21.1,37.9
	c4.2-2.2,13.4-8.6,17.1-17.1"/>
<linearGradient id="SVGID_00000140707487540313170790000006311349445087990434_" gradientUnits="userSpaceOnUse" x1="17.7734" y1="69.2582" x2="17.6368" y2="99.3731" gradientTransform="matrix(1 0 0 -1 0 102)">
	<stop  offset="5.891781e-02" style="stop-color:#FF1744"/>
	<stop  offset="0.2402" style="stop-color:#FF1744"/>
	<stop  offset="0.4581" style="stop-color:#FF616F"/>
	<stop  offset="0.7725" style="stop-color:#5CC6AC"/>
	<stop  offset="0.9466" style="stop-color:#00FFCF"/>
</linearGradient>
<path style="fill:none;stroke:url(#SVGID_00000140707487540313170790000006311349445087990434_);stroke-width:0.75;" d="M4.7,30
	C11,26.8,25.1,17.2,30.6,4.7"/>
<linearGradient id="SVGID_00000118371529348559772320000000763896716072666526_" gradientUnits="userSpaceOnUse" x1="41.2961" y1="57.5746" x2="41.2631" y2="64.6947" gradientTransform="matrix(1 0 0 -1 0 102)">
	<stop  offset="5.891781e-02" style="stop-color:#FF1744"/>
	<stop  offset="0.2402" style="stop-color:#FF1744"/>
	<stop  offset="0.4581" style="stop-color:#FF616F"/>
	<stop  offset="0.7725" style="stop-color:#5CC6AC"/>
	<stop  offset="0.9466" style="stop-color:#00FFCF"/>
</linearGradient>
<path style="fill:url(#SVGID_00000118371529348559772320000000763896716072666526_);" d="M41.3,43.8c1.7,0,3-1.3,3-3s-1.3-3-3-3
	c-1.7,0-3,1.3-3,3S39.6,43.8,41.3,43.8z"/>
<linearGradient id="SVGID_00000119799675168700987030000008528313565825094330_" gradientUnits="userSpaceOnUse" x1="33.7646" y1="29.268" x2="33.4107" y2="106.188" gradientTransform="matrix(1 0 0 -1 0 102)">
	<stop  offset="5.891781e-02" style="stop-color:#FF1744"/>
	<stop  offset="0.2402" style="stop-color:#FF1744"/>
	<stop  offset="0.4581" style="stop-color:#FF616F"/>
	<stop  offset="0.7725" style="stop-color:#5CC6AC"/>
	<stop  offset="0.9466" style="stop-color:#00FFCF"/>
</linearGradient>
<path style="fill:none;stroke:url(#SVGID_00000119799675168700987030000008528313565825094330_);stroke-width:1.5;stroke-miterlimit:10;" d="
	M16.7,41.4c0,0-25.1-15.3-11.8-33.3c0,0,15-20,37.6,7.5l-3.9,5.2c0,0,11.3,9.3,16.8,11l10.2,31.6c0,0,1.4,1.1,0.3,2c0,0-0.9,1-2-0.3
	L32.4,54.7c0,0-7.1-14-11-16.8L16.7,41.4z"/>
<linearGradient id="SVGID_00000092445983642882408280000013868337194064879774_" gradientUnits="userSpaceOnUse" x1="97.3552" y1="50.7692" x2="97.3283" y2="56.5745" gradientTransform="matrix(1 0 0 -1 0 102)">
	<stop  offset="5.891781e-02" style="stop-color:#FF1744"/>
	<stop  offset="0.2402" style="stop-color:#FF1744"/>
	<stop  offset="0.4581" style="stop-color:#FF616F"/>
	<stop  offset="0.7725" style="stop-color:#5CC6AC"/>
	<stop  offset="0.9466" style="stop-color:#00FFCF"/>
</linearGradient>
<linearGradient id="SVGID_00000140706718211812628470000017764241210296269736_" gradientUnits="userSpaceOnUse" x1="97.3552" y1="50.7692" x2="97.3283" y2="56.5745" gradientTransform="matrix(1 0 0 -1 0 102)">
	<stop  offset="5.891781e-02" style="stop-color:#FF1744"/>
	<stop  offset="0.2402" style="stop-color:#FF1744"/>
	<stop  offset="0.4581" style="stop-color:#FF616F"/>
	<stop  offset="0.7725" style="stop-color:#5CC6AC"/>
	<stop  offset="0.9466" style="stop-color:#00FFCF"/>
</linearGradient>
<circle style="fill:url(#SVGID_00000092445983642882408280000013868337194064879774_);stroke:url(#SVGID_00000140706718211812628470000017764241210296269736_);" cx="97.3" cy="48.3" r="1.9"/>
<linearGradient id="SVGID_00000044174637058024738250000011643930942820337841_" gradientUnits="userSpaceOnUse" x1="33.9406" y1="0.4641" x2="33.9136" y2="6.2696" gradientTransform="matrix(1 0 0 -1 0 102)">
	<stop  offset="5.891781e-02" style="stop-color:#FF1744"/>
	<stop  offset="0.2402" style="stop-color:#FF1744"/>
	<stop  offset="0.4581" style="stop-color:#FF616F"/>
	<stop  offset="0.7725" style="stop-color:#5CC6AC"/>
	<stop  offset="0.9466" style="stop-color:#00FFCF"/>
</linearGradient>
<linearGradient id="SVGID_00000066510240140442719060000013863738324099237794_" gradientUnits="userSpaceOnUse" x1="33.9406" y1="0.4641" x2="33.9136" y2="6.2696" gradientTransform="matrix(1 0 0 -1 0 102)">
	<stop  offset="5.891781e-02" style="stop-color:#FF1744"/>
	<stop  offset="0.2402" style="stop-color:#FF1744"/>
	<stop  offset="0.4581" style="stop-color:#FF616F"/>
	<stop  offset="0.7725" style="stop-color:#5CC6AC"/>
	<stop  offset="0.9466" style="stop-color:#00FFCF"/>
</linearGradient>
<circle style="fill:url(#SVGID_00000044174637058024738250000011643930942820337841_);stroke:url(#SVGID_00000066510240140442719060000013863738324099237794_);" cx="33.9" cy="98.6" r="1.9"/>
</svg>
